<?xml version="1.0" standalone="no"?>
<!DOCTYPE svg PUBLIC "-//W3C//DTD SVG 1.1//EN" "http://www.w3.org/Graphics/SVG/1.1/DTD/svg11.dtd" >
<svg xmlns="http://www.w3.org/2000/svg">
<metadata></metadata>
<defs>
<font id="corporate_a_condensed_treg" horiz-adv-x="876" >
<font-face units-per-em="2048" ascent="1638" descent="-410" />
<missing-glyph horiz-adv-x="430" />
<glyph horiz-adv-x="2048" />
<glyph horiz-adv-x="2048" />
<glyph unicode="&#xd;" horiz-adv-x="681" />
<glyph unicode=" "  horiz-adv-x="430" />
<glyph unicode="&#x09;" horiz-adv-x="430" />
<glyph unicode="&#xa0;" horiz-adv-x="430" />
<glyph unicode="!" horiz-adv-x="434" d="M121 88q0 41 28.5 68.5t71.5 27.5t70.5 -27.5t27.5 -70.5q0 -41 -28.5 -70.5t-69.5 -29.5t-70.5 30.5t-29.5 71.5zM147 1339h142l-31 -929h-82z" />
<glyph unicode="&#x22;" horiz-adv-x="638" d="M143 1366h125l-18 -549h-88zM373 1366h125l-19 -549h-90z" />
<glyph unicode="#" horiz-adv-x="1015" d="M70 434l14 111h184l37 301h-184l14 110h184l54 410h102l-53 -410h237l52 410h102l-51 -410h184l-14 -110h-184l-37 -301h184l-14 -111h-185l-55 -434h-102l55 434h-238l-55 -434h-102l55 434h-184zM371 545h237l37 301h-237z" />
<glyph unicode="$" d="M90 -31v445h39q20 -170 92 -266.5t187 -104.5v586q-170 90 -226 149q-78 90 -78 240q0 156 82 256t222 112v164h55v-166q119 -8 192 -106l50 115h26v-379h-39q-27 150 -82 224.5t-147 84.5v-530l20 -15q20 -12 41 -22q154 -92 208 -172t54 -217q0 -164 -89 -270.5 t-234 -116.5v-164h-55v166q-129 8 -230 116l-61 -129h-27zM231 1069q0 -82 38.5 -135.5t138.5 -108.5v496q-80 -14 -128.5 -83t-48.5 -169zM463 43q92 14 143 86t51 186q0 100 -42.5 162t-151.5 119v-553z" />
<glyph unicode="%" horiz-adv-x="1015" d="M63 1055q0 139 63 231t157 92q92 0 151.5 -91t59.5 -234.5t-60.5 -236.5t-154.5 -93q-96 0 -156 92t-60 240zM154 0l641 1366h67l-641 -1366h-67zM172 1063q0 -291 106.5 -291t106.5 277q0 280 -104 280q-51 0 -80 -70.5t-29 -195.5zM522 317q0 141 62.5 233.5t157 92.5 t152.5 -90t58 -236q0 -143 -60.5 -236t-154.5 -93t-154.5 93t-60.5 236zM631 313q0 -276 106.5 -276t106 278.5t-104.5 278.5q-109 0 -108 -281z" />
<glyph unicode="&#x26;" horiz-adv-x="987" d="M66 346q0 115 51 205t180 201q-78 139 -98.5 194t-20.5 121q0 119 68.5 197.5t171.5 78.5q96 0 154.5 -70.5t58.5 -182.5q0 -88 -37 -164t-139 -193l268 -457q63 111 63 226q0 37 -19 51t-69 18v60q72 -10 121 -10t119 10v-60q-57 -4 -72.5 -19t-23.5 -77 q-14 -154 -78 -266l43 -78q39 -66 59.5 -79t81.5 -17v-41q-74 8 -104 8q-29 0 -103 -8l-61 110q-70 -70 -130.5 -98.5t-137.5 -28.5q-152 0 -249 103.5t-97 265.5zM205 336q0 -127 62.5 -206t162.5 -79q55 0 101.5 25t109.5 88l-281 481q-84 -78 -119.5 -147.5t-35.5 -161.5 zM287 1114q0 -102 104 -270q78 88 107.5 147.5t29.5 128.5q0 72 -32.5 120t-81.5 48q-53 0 -90 -51t-37 -123z" />
<glyph unicode="'" horiz-adv-x="409" d="M143 1366h125l-18 -549h-88z" />
<glyph unicode="(" horiz-adv-x="526" d="M129 483.5q0 544.5 242 917.5h53q-152 -389 -152 -917.5t152 -915.5h-53q-242 371 -242 915.5z" />
<glyph unicode=")" horiz-adv-x="526" d="M102 -432q152 387 152 915.5t-152 917.5h54q242 -371 241 -918q1 -544 -241 -915h-54z" />
<glyph unicode="*" d="M193 1067l26 100l182 -77l-8 235h90l-8 -235l184 77l27 -100l-188 -61l127 -189l-68 -63l-119 204l-116 -204l-70 63l127 189z" />
<glyph unicode="+" d="M98 631v121h285v358h111v-358h286v-121h-286v-359h-111v359h-285z" />
<glyph unicode="," horiz-adv-x="403" d="M72 -342q53 70 95 167t46 167h-6q-12 -4 -14 -4q-35 0 -58.5 28.5t-23.5 73.5q0 49 26.5 81t69.5 32q45 0 71.5 -36t26.5 -99q1 -174 -151 -410h-82z" />
<glyph unicode="-" horiz-adv-x="440" d="M10 502v92h420v-92h-420z" />
<glyph unicode="." horiz-adv-x="403" d="M106 90q0 41 30 69.5t71 28.5t69.5 -28.5t28.5 -69.5q0 -43 -28.5 -71.5t-69.5 -28.5t-71 29.5t-30 70.5z" />
<glyph unicode="/" horiz-adv-x="681" d="M-131 -397l694 1763h90l-694 -1763h-90z" />
<glyph unicode="0" d="M96 700q0 201 48.5 362t129.5 230q74 62 168 62q121 0 203 -99q59 -74 98 -239.5t39 -347.5q0 -346 -106 -537q-84 -150 -236 -149q-168 0 -256 183t-88 535zM250 696q0 -655 192 -655q90 0 138.5 157.5t48.5 456.5q-1 639 -189 639q-90 0 -140 -156.5t-50 -441.5z" />
<glyph unicode="1" d="M199 1120v49q102 8 177 71t99 159h49v-1219q0 -82 21.5 -105.5t107.5 -31.5v-49q-96 12 -202.5 12t-202.5 -12v49q86 8 107.5 31.5t21.5 105.5v940h-178z" />
<glyph unicode="2" d="M115 0v115q258 379 360.5 581.5t102.5 331.5q0 94 -48.5 152.5t-126.5 58.5q-186 0 -215 -285h-53q10 178 68 275q33 57 98.5 91t142.5 34q127 0 208 -87t81 -223q0 -123 -89 -287.5t-398 -613.5h497l-16 -143h-612z" />
<glyph unicode="3" d="M102 379h58q12 -293 215 -293q104 0 166.5 81t62.5 216q0 172 -84 246q-59 49 -182 49h-12v72q125 0 180 69q59 76 59 195q0 111 -46 173t-128 62q-88 0 -138 -60.5t-71 -189.5h-51q29 354 295 355q131 0 210 -87t79 -233q0 -236 -211 -307q254 -76 254 -346 q0 -174 -97.5 -286.5t-246.5 -112.5q-147 0 -229.5 104.5t-82.5 292.5z" />
<glyph unicode="4" d="M41 354l444 1014h146v-885h168v-129h-168v-385h-148v385h-442zM160 483h325v758z" />
<glyph unicode="5" d="M123 322h57q20 -236 191 -236q104 0 167.5 103.5t63.5 273.5q0 160 -59.5 255t-157.5 95q-123 0 -195 -154l-63 5l117 671h461l-15 -143h-393l-78 -395q84 115 217 114q143 0 232.5 -122.5t89.5 -323.5q0 -123 -43 -235.5t-113 -174.5q-82 -74 -196 -73q-264 0 -283 340z " />
<glyph unicode="6" d="M98 457q0 260 185 549q130 206 327 413h84q-102 -119 -199.5 -265t-148.5 -259q63 27 117 27q135 0 222 -130t87 -331q0 -211 -93 -345t-241 -134q-150 0 -245 133t-95 342zM256 440q0 -193 46 -296t132 -103t132 103.5t46 297.5q0 412 -176 412q-180 0 -180 -414z" />
<glyph unicode="7" horiz-adv-x="878" d="M100 1186v149h676l-473 -1335h-133l475 1186h-545z" />
<glyph unicode="8" d="M119 369q0 231 184 331q-160 88 -160 301q0 156 84 254.5t217 98.5q131 0 210 -94.5t79 -249.5q0 -218 -162 -310q188 -84 189 -327q0 -176 -88 -283.5t-233.5 -107.5t-232.5 105.5t-87 281.5zM268 365q0 -150 46 -237t124 -87q76 0 124 88t48 229.5t-46 225.5t-121.5 84 t-125 -85t-49.5 -218zM293 1004q0 -129 39 -203t106 -74q66 0 106 76t40 203q-1 288 -142 288q-72 0 -110.5 -76.5t-38.5 -213.5z" />
<glyph unicode="9" d="M121 879q0 209 89 342t228 133q145 0 236.5 -132t91.5 -345q0 -256 -170 -545q-141 -234 -309 -418h-84q96 115 188 264.5t141 263.5q-66 -29 -114 -28q-129 0 -213 131t-84 334zM276 907q0 -426 166 -426q172 0 172 391q0 422 -168 422q-170 0 -170 -387z" />
<glyph unicode=":" horiz-adv-x="403" d="M100 84q0 41 30 69.5t71 28.5t69.5 -28.5t28.5 -69.5q0 -43 -28.5 -71.5t-69.5 -28.5t-71 29.5t-30 70.5zM106 770q0 41 30 69.5t71 28.5t69.5 -29.5t28.5 -70.5t-28.5 -69.5t-69.5 -28.5q-43 0 -72 28.5t-29 71.5z" />
<glyph unicode=";" horiz-adv-x="405" d="M72 -342q53 70 95 167t46 167h-6q-12 -4 -14 -4q-35 0 -58.5 28.5t-23.5 73.5q0 49 26.5 81t69.5 32q45 0 71.5 -36t26.5 -99q1 -174 -151 -410h-82zM106 772q0 41 29 69.5t72 28.5q41 0 69.5 -28.5t28.5 -69.5t-28.5 -70.5t-69.5 -29.5t-71 29.5t-30 70.5z" />
<glyph unicode="&#x3c;" horiz-adv-x="839" d="M82 692v13l676 544v-69l-525 -428l525 -439v-186z" />
<glyph unicode="=" d="M98 496v120h682v-120h-682zM98 764v121h682v-121h-682z" />
<glyph unicode="&#x3e;" horiz-adv-x="839" d="M82 127v72l524 428l-524 436v186l676 -563v-12z" />
<glyph unicode="?" horiz-adv-x="647" d="M74 995q0 172 71.5 265.5t204.5 93.5q113 0 181.5 -80t68.5 -211q0 -94 -32.5 -160.5t-123.5 -154.5q-102 -106 -108 -146q-29 -186 -29 -188q0 -13 2 -23h-69q-6 47 -7 109q0 143 60 241q12 18 72 99q88 121 88 221q0 80 -40 128t-108 48q-82 0 -130 -62.5t-56 -179.5 h-45zM186 88q0 41 28 68.5t73 27.5q41 0 69.5 -28.5t28.5 -69.5t-29.5 -70.5t-70.5 -29.5t-70 29.5t-29 72.5z" />
<glyph unicode="@" horiz-adv-x="1185" d="M27 594q0 276 172 465.5t424 189.5q137 0 256.5 -61.5t195.5 -167.5q82 -119 82 -285q0 -213 -125 -373q-53 -70 -123.5 -112.5t-132.5 -42.5q-53 0 -81.5 36t-39.5 113q-47 -76 -88 -107.5t-94 -31.5q-90 0 -150.5 81t-60.5 204q0 178 102.5 311t237.5 133 q111 0 135 -143l27 127h113l-117 -539q-8 -39 -8 -65q0 -29 14 -49.5t35 -20.5q39 0 94 44t92 106q96 158 96 336t-135 303.5t-323 125.5q-223 0 -371 -163.5t-148 -411.5q0 -250 150 -418t371 -168q257 1 411 271h82q-41 -84 -78.5 -133.5t-99.5 -98.5q-143 -111 -311 -110 q-256 0 -430 188t-174 467zM387 444q0 -76 32 -129t77 -53q29 0 59.5 24.5t50.5 63.5q43 80 72 191.5t29 197.5q-1 162 -93 162q-82 0 -154.5 -145.5t-72.5 -311.5z" />
<glyph unicode="A" horiz-adv-x="1073" d="M27 -6v49q76 6 100.5 29.5t52.5 113.5l377 1223l342 -1245q20 -72 46 -92.5t102 -28.5v-49q-121 16 -199 16t-201 -16v49q98 10 98 61q0 25 -10 70l-55 221h-373l-57 -192q-18 -74 -19 -99q0 -31 24 -44t83 -17v-49q-82 10 -156 10q-72 0 -155 -10zM326 459h338l-154 608 z" />
<glyph unicode="B" horiz-adv-x="958" d="M63 0v49q84 10 107 32.5t23 104.5v994q0 82 -23 104.5t-107 30.5v51h424q178 0 258 -100q76 -98 76 -232q0 -219 -192 -305q117 -27 180 -116t63 -222q0 -111 -48 -204t-130 -140q-76 -47 -223 -47h-408zM344 170q0 -66 18.5 -86.5t79.5 -20.5h37q111 0 172.5 85 t61.5 239q0 178 -84 252q-49 43 -156 43h-129v-512zM344 745h86q76 0 119 20.5t72 70.5q41 76 41 192q0 174 -74 238q-47 37 -131 37h-113v-558z" />
<glyph unicode="C" horiz-adv-x="1003" d="M94 680q0 324 122 518.5t323 194.5q152 0 252 -121l55 117h33v-404h-41q-68 342 -279 342q-145 0 -224 -168t-79 -475q0 -295 79 -456.5t222 -161.5q121 0 193.5 104.5t80.5 290.5h60q-8 -227 -104.5 -357.5t-256.5 -130.5q-197 0 -316.5 194.5t-119.5 512.5z" />
<glyph unicode="D" horiz-adv-x="1060" d="M55 0v49q84 10 106.5 32.5t22.5 104.5v994q0 82 -22.5 104.5t-106.5 30.5v51h398q147 0 244.5 -55.5t166.5 -175.5q111 -197 111 -451q0 -178 -56.5 -336t-150.5 -239q-121 -109 -315 -109h-398zM338 166q0 -68 18.5 -87.5t79.5 -19.5q201 0 285 154q94 168 94 473 q0 297 -94 465q-84 152 -275 152h-108v-1137z" />
<glyph unicode="E" horiz-adv-x="911" d="M63 0v51q84 8 107 30.5t23 104.5v994q0 82 -23 104.5t-107 30.5v51h713l29 -307h-39q-31 147 -69 195.5t-122 48.5h-229v-562h227q53 0 72 32t23 136h41v-401h-41q-4 102 -24.5 136t-78.5 34h-219v-494q0 -72 21.5 -96.5t85.5 -24.5h112q96 0 140.5 54.5t78.5 212.5h39 l-39 -330h-721z" />
<glyph unicode="F" horiz-adv-x="872" d="M70 -6v49q86 8 107.5 31.5t21.5 105.5v1000q0 82 -22.5 104.5t-106.5 30.5v51h712l29 -307h-39q-31 145 -69.5 194.5t-122.5 49.5h-228v-562h226q51 0 65 23q25 35 31 145h41v-401h-41q-4 102 -24.5 136t-80.5 34h-217v-498q0 -82 21.5 -105.5t105.5 -31.5v-49 q-137 16 -203 16q-68 0 -206 -16z" />
<glyph unicode="G" horiz-adv-x="1054" d="M88 686q0 322 122 513.5t327 191.5q152 0 254 -117l59 117h33v-406h-41q-39 178 -107.5 260t-177.5 82q-150 0 -228.5 -167t-78.5 -486q0 -340 94 -506q74 -131 207 -131q96 0 207 69v355q0 57 -22.5 75.5t-98.5 26.5v49q100 -12 186 -12t185 12v-49q-74 -10 -91.5 -26.5 t-17.5 -79.5v-338q-109 -78 -188.5 -110t-165.5 -32q-211 0 -334 190.5t-123 518.5z" />
<glyph unicode="H" horiz-adv-x="1130" d="M63 -6v49q86 8 108 31.5t22 105.5v1006q0 82 -21.5 105.5t-108.5 31.5v49q123 -14 203 -14q82 0 205 14v-49q-84 -8 -105.5 -31.5t-21.5 -105.5v-443h444v443q0 82 -21.5 105.5t-104.5 31.5v49q123 -14 204 -14q80 0 203 14v-49q-86 -8 -107.5 -31.5t-21.5 -105.5v-1006 q0 -82 21.5 -105.5t107.5 -31.5v-49q-139 16 -203 16q-66 0 -204 -16v49q84 8 105 31.5t21 105.5v500h-444v-500q0 -82 21.5 -105.5t105.5 -31.5v-49q-139 16 -205 16q-63 0 -203 -16z" />
<glyph unicode="I" horiz-adv-x="534" d="M63 -6v49q86 8 108 31.5t22 105.5v1006q0 82 -23 104.5t-107 32.5v49q127 -14 207 -14q78 0 205 14v-49q-84 -10 -106.5 -32.5t-22.5 -104.5v-1006q0 -82 21.5 -105.5t107.5 -31.5v-49q-145 16 -205 16q-61 0 -207 -16z" />
<glyph unicode="J" horiz-adv-x="530" d="M0 -80q14 -2 33 -2q90 0 123.5 55.5t33.5 200.5v1012q0 82 -22.5 104.5t-106.5 32.5v49q127 -14 207 -14q78 0 205 14v-49q-84 -10 -106.5 -32.5t-22.5 -104.5v-940q0 -176 -47 -260q-72 -129 -240 -129q-32 0 -57 2v61z" />
<glyph unicode="K" horiz-adv-x="1064" d="M63 -6v49q84 10 107 32.5t23 104.5v1006q0 82 -23 105.5t-107 31.5v49q129 -14 207 -14t199 14v-49q-84 -8 -106.5 -31.5t-22.5 -105.5v-473l367 514q23 35 22 53q0 35 -74 41l-28 2v49q100 -10 168 -10q72 0 168 10v-49q-72 -4 -109 -25.5t-84 -83.5l-274 -387l358 -651 q45 -78 79 -103.5t103 -29.5v-49q-131 16 -215 16q-82 0 -213 -16v49l27 4q86 8 86 49q0 20 -29 74l-286 539l-66 -93v-436q0 -82 20.5 -105.5t102.5 -31.5v-49q-117 16 -193 16q-68 0 -207 -16z" />
<glyph unicode="L" horiz-adv-x="847" d="M63 0v51q84 8 107 30.5t23 104.5v1000q0 82 -23 104.5t-107 32.5v49q127 -14 207 -14q78 0 205 14v-49q-84 -10 -106.5 -32.5t-22.5 -104.5v-996q0 -72 21.5 -96t83.5 -24h112q100 0 144.5 52t78.5 208h39l-39 -330h-723z" />
<glyph unicode="M" horiz-adv-x="1366" d="M61 -6v49l19 2q74 8 93.5 30.5t23.5 104.5l34 1006v12v10q-1 62 -25 84q-26 24 -110 29v51q84 -8 137 -8q78 0 160 10l301 -1020l299 1020q94 -10 162 -10q47 0 131 8v-49q-90 -10 -111.5 -31.5t-23.5 -105.5l16 -1006q2 -82 24.5 -104.5t111.5 -32.5v-49 q-141 16 -207 16t-207 -16v49q84 6 109.5 30.5t25.5 102.5v4l-16 1037l-265 -891l-81 -289h-25l-84 297l-260 885l-35 -1039v-12q0 -70 22 -92q24 -22 113 -33v-49q-102 10 -164 10q-63 0 -168 -10z" />
<glyph unicode="N" horiz-adv-x="1122" d="M61 1323v49q78 -6 140 -6q53 0 118 6l551 -1024v838q0 82 -22.5 104.5t-108.5 32.5v49q117 -10 166 -10q53 0 160 10v-49q-88 -10 -110.5 -32.5t-22.5 -104.5v-1227h-27q-39 76 -170 326l-479 897v-1002q0 -82 21.5 -105.5t109.5 -31.5v-49q-119 10 -164 10 q-51 0 -160 -10v49q88 8 111 31.5t23 105.5v1082q-37 53 -136 61z" />
<glyph unicode="O" horiz-adv-x="1056" d="M88 680q0 324 119.5 518.5t318.5 194.5q88 0 168 -42t131 -118q141 -205 142 -571q0 -190 -57.5 -356.5t-147.5 -244.5q-100 -86 -232 -86q-176 0 -288 142q-70 84 -112 238.5t-42 324.5zM250 692q0 -313 74.5 -486t207.5 -173q129 0 200 169t71 478q0 373 -94 532 q-72 123 -181 123q-129 0 -203.5 -172t-74.5 -471z" />
<glyph unicode="P" horiz-adv-x="913" d="M63 -6v49q86 8 108 31.5t22 105.5v1000q0 82 -23 104.5t-107 30.5v51h422q201 0 289 -109q86 -113 86 -266q0 -174 -96 -274.5t-262 -100.5h-156v-436q0 -82 21.5 -105.5t107.5 -31.5v-49q-141 16 -205 16q-66 0 -207 -16zM346 680h109q145 0 202 104q49 84 50 213 q0 84 -25 156t-64 104q-51 45 -155 46h-117v-623z" />
<glyph unicode="Q" horiz-adv-x="1052" d="M88 680q0 326 119 519.5t319 193.5q199 0 319 -194.5t120 -518.5q0 -252 -86 -449q98 -199 186 -200v-54h-45q-70 0 -116 25t-109 94q-109 -121 -265 -121q-172 0 -288 140q-68 84 -111 241.5t-43 323.5zM250 694q0 -313 72.5 -487t203.5 -174q115 0 183 119 q94 172 94 524q0 313 -72 486t-203 173t-204.5 -170t-73.5 -471z" />
<glyph unicode="R" horiz-adv-x="997" d="M63 -6v49q86 8 108 31.5t22 105.5v1000q0 82 -23 104.5t-107 30.5v51h431q170 0 265 -95t95 -263q0 -279 -274 -346q59 -18 89.5 -54.5t61.5 -122.5l109 -323q27 -74 49 -94.5t84 -24.5v-49q-74 6 -113 6q-41 0 -115 -6q-35 90 -45 127l-120 366q-31 94 -68 128t-111 34 h-57v-469q0 -80 22.5 -104.5t106.5 -32.5v-49q-139 16 -203 16q-66 0 -207 -16zM346 713h119q119 0 174 71q61 82 61 230q0 289 -227 289h-127v-590z" />
<glyph unicode="S" horiz-adv-x="870" d="M106 -31v445h41q47 -369 285 -369q98 0 160.5 75t62.5 191q0 100 -47 166t-178 144q-182 109 -244.5 191.5t-62.5 215.5q0 158 88 257t227 99q129 0 213 -104l47 113h31v-377h-41q-53 307 -237 307q-86 0 -144.5 -69.5t-58.5 -172.5q0 -90 48 -147t206 -156 q166 -102 223 -187t57 -226q0 -170 -92 -276.5t-237 -106.5q-147 0 -258 116l-58 -129h-31z" />
<glyph unicode="T" horiz-adv-x="886" d="M41 1053l45 313h717l47 -313h-43q-33 154 -71 202t-122 48h-94v-1123q0 -82 21.5 -105.5t107.5 -31.5v-49q-139 16 -205 16q-68 0 -206 -16v49q86 8 107.5 31.5t21.5 105.5v1123h-84q-84 0 -123 -49.5t-76 -200.5h-43z" />
<glyph unicode="U" horiz-adv-x="1110" d="M53 1323v49q127 -14 207 -14t203 14v-49q-84 -10 -105.5 -32.5t-21.5 -104.5v-793q0 -152 35 -211q60 -114 214 -114h3q135 0 209 88q65 75 65 245v5v780q0 82 -22.5 104.5t-108.5 32.5v49q117 -10 166 -10q53 0 160 10v-49q-88 -10 -110.5 -32.5t-22.5 -104.5v-768 q0 -174 -58 -273q-94 -168 -309 -168q-223 0 -321 177q-53 92 -54 256v776q0 82 -22.5 104.5t-106.5 32.5z" />
<glyph unicode="V" horiz-adv-x="1071" d="M27 1323v49q109 -14 198.5 -14t198.5 14v-49q-102 -12 -102 -59q0 -23 12 -70l241 -920l252 895q18 74 19 93q0 29 -24.5 43t-84.5 18v49q74 -10 152 -10q76 0 155 10v-49q-66 -6 -95 -30.5t-50 -90.5l-348 -1227h-41l-336 1221q-23 76 -47.5 97.5t-99.5 29.5z" />
<glyph unicode="W" horiz-adv-x="1458" d="M41 1323v49q86 -14 195 -14q106 0 192 14v-49q-61 -8 -85 -21.5t-24 -39.5q0 -8 9 -62l178 -840l250 1037h37l245 -1039l183 836q12 49 12 72q0 49 -105 57v49q72 -10 148 -10q74 0 145 10v-49q-66 -4 -91 -25.5t-42 -83.5l-278 -1237h-33l-250 1072l-254 -1074h-33 l-266 1227q-16 68 -43 92.5t-90 28.5z" />
<glyph unicode="X" horiz-adv-x="1038" d="M29 -6v49q66 4 103.5 33.5t86.5 122.5l240 477l-223 522q-29 72 -59 94.5t-101 30.5v49q121 -14 205 -14t204 14v-49q-63 -8 -85.5 -19.5t-22.5 -35.5q0 -27 16 -64l154 -356l176 346q27 57 27 80q0 41 -105 49v49q80 -10 160 -10q84 0 160 10v-49q-70 -8 -100.5 -27.5 t-61.5 -78.5l-225 -443l256 -598q39 -84 65.5 -105.5t101.5 -27.5v-49q-127 14 -210 14q-82 0 -211 -14v49l30 4q84 10 84 51q0 33 -30 101l-175 403l-208 -420q-33 -61 -33 -90q0 -41 104 -49v-49q-98 10 -162 10q-61 0 -161 -10z" />
<glyph unicode="Y" horiz-adv-x="989" d="M33 1323v49q121 -14 205 -14q88 0 204 14v-49q-63 -6 -87.5 -17.5t-24.5 -35.5q0 -23 14 -66l207 -524l203 526q16 45 16 64q0 25 -24.5 36t-86.5 17v49q84 -10 152 -10q66 0 154 10v-49q-70 -10 -96.5 -30.5t-53.5 -80.5l-240 -616v-416q0 -82 21.5 -105.5t108.5 -31.5 v-49q-145 16 -207 16q-63 0 -205 -16v49q86 8 107.5 31.5t21.5 105.5v416l-240 614q-27 63 -54.5 84t-94.5 29z" />
<glyph unicode="Z" horiz-adv-x="901" d="M61 0l586 1303h-266q-92 0 -136 -50.5t-75 -189.5h-43l43 303h668l-586 -1303h301q111 0 147 48q55 74 99 223h41l-47 -334h-732z" />
<glyph unicode="[" horiz-adv-x="526" d="M186 -397v1763h285v-61h-156v-1641h156v-61h-285z" />
<glyph unicode="\" horiz-adv-x="681" d="M27 1366h90l694 -1763h-90z" />
<glyph unicode="]" horiz-adv-x="526" d="M55 -336h156v1641h-156v61h285v-1763h-285v61z" />
<glyph unicode="^" horiz-adv-x="839" d="M-29 588l451 846h10l436 -846h-55l-342 655l-350 -655h-150z" />
<glyph unicode="_" horiz-adv-x="839" d="M51 -180h740v-78h-740v78z" />
<glyph unicode="`" horiz-adv-x="839" d="M178 1430h182l160 -302h-74z" />
<glyph unicode="a" horiz-adv-x="784" d="M76 244q0 160 121 243q123 88 297 115v146q0 182 -123 182q-55 0 -91 -33t-34 -80q2 -20 2 -59q0 -86 -72 -86q-59 0 -59 69q0 100 79.5 172t188.5 72q158 0 219 -127q33 -59 33 -201v-428q0 -100 13.5 -141t47.5 -41q14 0 41 6v-53q-59 -14 -96 -14q-115 0 -129 168 q-41 -92 -89 -132t-124 -40q-100 0 -162.5 72.5t-62.5 189.5zM223 258q0 -90 33 -139t90 -49q76 0 112 72.5t36 230.5v176q-143 -33 -207 -100.5t-64 -190.5z" />
<glyph unicode="b" horiz-adv-x="849" d="M29 1298v37q135 14 252 54v-555q39 82 85 116.5t111 34.5q133 0 215 -139t82 -362.5t-85 -362.5t-222 -139q-143 0 -209 176l-76 -181h-45v1201q0 80 -18.5 99t-89.5 21zM279 492q0 -260 51 -361q49 -92 123 -92q170 0 170 446q0 443 -164 443q-88 0 -134 -113t-46 -323z " />
<glyph unicode="c" horiz-adv-x="735" d="M78 477q0 229 90 371.5t233 142.5q102 0 168 -86l41 103h31v-336h-39q-41 264 -180 264q-88 0 -138.5 -123t-50.5 -342q0 -426 185 -426q145 0 174 270h65q-14 -164 -81.5 -251t-176.5 -87q-143 0 -232 137.5t-89 362.5z" />
<glyph unicode="d" horiz-adv-x="860" d="M78 477q0 223 82 362.5t213 139.5q63 0 106 -34t80 -114v347q0 80 -18.5 99t-89.5 21v37q133 14 251 54v-1182q0 -88 18.5 -111.5t86.5 -27.5h14v-35q-152 -23 -225 -53q-16 84 -23 159q-63 -164 -196 -164t-216 139.5t-83 362.5zM229 479q0 -446 166 -446 q80 0 123 106.5t43 302.5q0 480 -172 480q-160 0 -160 -443z" />
<glyph unicode="e" horiz-adv-x="772" d="M76 483q0 225 88 364.5t231 139.5q139 0 217 -125t84 -356h-473q6 -231 45 -336q49 -123 158 -123q84 0 138.5 69.5t68.5 196.5h63q-14 -158 -91 -245.5t-197 -87.5q-154 0 -243 136t-89 367zM227 580h326q-12 354 -160 354q-141 0 -166 -354z" />
<glyph unicode="f" horiz-adv-x="505" d="M55 -6v41q70 4 90.5 24.5t20.5 85.5v746h-107v63q76 2 95.5 23.5t23.5 105.5q0 121 29 185q59 127 196 127q74 0 119 -42t45 -112q0 -76 -63 -76q-66 0 -66 60q0 12 6 37q2 8 2 24q0 57 -45 57q-41 0 -67 -43q-25 -43 -25 -172v-161h183v-76h-183v-746q0 -66 19.5 -86 t91.5 -24v-41q-102 12 -182 12t-183 -12z" />
<glyph unicode="g" horiz-adv-x="827" d="M59 -123q0 152 158 219q-82 45 -82 119q0 113 172 168q-90 35 -139 110.5t-49 180.5q0 145 76.5 228t214.5 83q94 0 168 -53h217v-82l-156 6q39 -80 39 -172q0 -156 -96 -242q-49 -43 -156 -80l-47 -16q-86 -29 -111.5 -47t-25.5 -49q0 -37 30.5 -51.5t112.5 -16.5 q154 -8 229 -43q143 -61 144 -233q0 -139 -98.5 -225.5t-258.5 -86.5q-154 0 -248 78t-94 205zM131 -139q0 -88 76 -145.5t190 -57.5q117 0 184.5 53t67.5 144q0 84 -53 127q-72 53 -211 53q-121 0 -187.5 -45t-66.5 -129zM254 686q0 -121 39 -192.5t106.5 -71.5t104.5 68.5 t37 195.5q0 119 -37 183.5t-103 64.5q-68 0 -107.5 -67.5t-39.5 -180.5z" />
<glyph unicode="h" horiz-adv-x="905" d="M45 -6v41q70 4 90.5 24.5t20.5 85.5v1033q0 80 -18.5 99t-90.5 21v37q127 14 252 54v-541q80 137 211 137q129 0 197 -117q41 -78 41 -221v-502q0 -66 19 -86t91 -24v-41q-100 12 -178 12q-80 0 -178 -12v41q61 4 81.5 24.5t20.5 81.5v514q0 123 -29 174q-35 63 -110 64 q-90 0 -135 -82q-31 -59 -31 -164v-506q0 -59 20.5 -81.5t79.5 -24.5v-41q-98 12 -176 12t-178 -12z" />
<glyph unicode="i" horiz-adv-x="477" d="M59 -6v41q72 4 91.5 24.5t19.5 85.5v648q0 80 -17.5 99t-91.5 21v35q133 14 252 53v-856q0 -66 19.5 -86t91.5 -24v-41q-106 12 -182 12t-183 -12zM137 1253q0 41 29 70t72 29q41 0 69.5 -29t28.5 -70t-30 -70.5t-70.5 -29.5t-69.5 28.5t-29 71.5z" />
<glyph unicode="j" horiz-adv-x="473" d="M-20 -362q102 20 145 89.5t43 215.5v850q0 78 -18.5 98t-90.5 22v35q133 14 252 53v-974q0 -262 -114 -363q-88 -78 -217 -80v54zM135 1260q0 41 30 69.5t70.5 28.5t69.5 -29t29 -69q0 -43 -29 -72t-69 -29q-43 0 -72 29t-29 72z" />
<glyph unicode="k" horiz-adv-x="894" d="M45 -6v41q70 4 90.5 24.5t20.5 85.5v1033q0 80 -18.5 99t-90.5 21v37q127 14 252 54v-914l254 350q29 39 29 58q0 43 -90 49v41q82 -10 155.5 -10t163.5 10v-41q-61 -6 -91 -23.5t-73 -72.5l-158 -211l234 -480q35 -68 60.5 -88t84.5 -22v-41q-80 8 -114 8q-37 0 -113 -8 l-238 520l-106 -139v-230q0 -66 21.5 -86t91.5 -24v-41q-102 12 -185 12q-80 0 -180 -12z" />
<glyph unicode="l" horiz-adv-x="466" d="M55 -6v41q70 4 90.5 24.5t20.5 85.5v1035q0 78 -18.5 98t-90.5 20v37q131 15 252 54v-1244q0 -66 19.5 -86t91.5 -24v-41q-106 12 -182 12t-183 -12z" />
<glyph unicode="m" horiz-adv-x="1325" d="M57 -6v41q70 4 90.5 24.5t20.5 85.5v633q0 88 -13.5 106.5t-76.5 20.5h-21v37q139 23 222 62q12 -76 18 -175q45 84 96 120t125 36q141 0 197 -160q45 86 97 123t130 37q117 0 171 -74.5t54 -236.5v-529q0 -66 20.5 -86t92.5 -24v-41q-100 12 -180 12q-78 0 -178 -12v41 q61 4 81.5 24.5t20.5 81.5v539q0 115 -29.5 163t-99.5 48q-156 0 -156 -229v-521q0 -61 20.5 -81.5t82.5 -24.5v-41q-102 12 -174 12t-172 -12v41q59 4 79.5 24.5t20.5 81.5v535q0 115 -28.5 165t-96.5 50q-86 0 -127 -76q-33 -59 -33 -176v-498q0 -61 20.5 -81.5 t82.5 -24.5v-41q-98 12 -178 12t-179 -12z" />
<glyph unicode="n" horiz-adv-x="917" d="M59 -6v41q72 4 91.5 24.5t19.5 85.5v633q0 84 -14.5 104.5t-73.5 22.5h-21v37q139 27 220 62q12 -66 18 -179q82 160 223 160q131 0 199 -117q41 -78 41 -221v-502q0 -66 20.5 -86t89.5 -24v-41q-100 12 -178 12q-80 0 -178 -12v41q61 4 81.5 24.5t20.5 81.5v514 q0 123 -28 174q-35 63 -111 64q-90 0 -135 -82q-31 -59 -31 -164v-506q0 -59 20.5 -81.5t80.5 -24.5v-41q-98 12 -176 12t-179 -12z" />
<glyph unicode="o" horiz-adv-x="788" d="M76 483q0 225 91 366.5t236 141.5q117 0 197 -100q51 -63 83 -174t32 -232q0 -221 -90 -364.5t-232 -143.5q-139 0 -228 141.5t-89 364.5zM227 479q0 -448 165 -448h1q170 0 170 448q0 459 -166 459q-170 0 -170 -459z" />
<glyph unicode="p" horiz-adv-x="870" d="M45 -369q70 4 90.5 24.5t20.5 86.5v1051q0 90 -29 108q-16 12 -82 14v37q121 10 217 37q14 -59 23 -172q74 168 204 168q133 0 219.5 -141.5t86.5 -360.5q0 -221 -84 -361t-217 -140q-66 0 -110 32.5t-85 110.5v-383q0 -66 20.5 -86.5t90.5 -24.5v-41q-113 12 -187 13 q-76 0 -178 -13v41zM297 494q0 -455 178 -455q168 0 168 438q0 451 -170 451q-176 0 -176 -434z" />
<glyph unicode="q" horiz-adv-x="870" d="M76 483q0 219 86 360.5t219 141.5t205 -168q8 113 22 172q92 -27 217 -37v-37h-20q-53 -4 -71.5 -27.5t-18.5 -94.5v-1051q0 -66 19.5 -86.5t90.5 -24.5v-41q-100 12 -178 13q-74 0 -186 -13v41q72 4 91 24.5t19 86.5v383q-41 -78 -85 -110.5t-109 -32.5q-133 0 -217 140 t-84 361zM227 479q0 -440 168 -440q178 0 178 453q0 436 -176 436q-170 0 -170 -449z" />
<glyph unicode="r" horiz-adv-x="641" d="M57 -6v41q70 4 90.5 24.5t20.5 85.5v641q0 80 -10 101q-16 29 -67 29q-8 0 -17 -1q-10 0 -15 -2v37q152 23 217 49q12 -78 19 -194q23 88 73 137t115 49q61 0 100.5 -44t39.5 -116q0 -104 -78 -104q-31 0 -50.5 19.5t-19.5 48.5q0 6 6 43q4 16 4 22q0 18 -13 31.5 t-30 13.5q-61 0 -96 -88t-35 -244v-428q0 -66 21.5 -87t89.5 -23v-41q-102 12 -182 12t-183 -12z" />
<glyph unicode="s" horiz-adv-x="718" d="M98 -25v342h39q41 -274 207 -274q68 0 116 52t48 126q0 59 -34 102.5t-116 88.5q-145 78 -197 139t-52 160q0 123 69.5 198.5t181.5 75.5q92 0 162 -63l27 82h31v-318h-39q-20 242 -168 242q-63 0 -105.5 -47t-42.5 -119q0 -57 34 -99t116 -83q150 -78 202 -139.5 t52 -161.5q0 -131 -75 -214t-194 -83q-111 0 -194 86l-37 -93h-31z" />
<glyph unicode="t" horiz-adv-x="528" d="M57 891l2 63q154 6 199 306h45l-2 -293h184v-76h-184v-602q0 -147 25 -187q23 -41 69 -41q42 0 105 41v-61q-82 -59 -158 -59q-133 0 -174 129q-15 54 -15 151q0 22 1 45l6 584h-103z" />
<glyph unicode="u" horiz-adv-x="901" d="M37 913v35q129 14 252 53v-692q0 -125 32.5 -179t110.5 -54q164 0 164 260v457q0 77 -20 101q-16 20 -59 20q-9 0 -19 -1h-13v35q127 14 254 53v-819q0 -74 15.5 -92t76.5 -20h21v-37q-135 -16 -227 -53q-12 90 -13 153v27q-72 -176 -225 -176q-242 0 -242 327v482 q1 77 -19 101q-16 20 -59 20q-9 0 -18 -1h-12z" />
<glyph unicode="v" horiz-adv-x="815" d="M8 932v41q119 -12 182 -12q59 0 172 12v-41q-88 0 -88 -45q0 -14 11 -49l164 -598l174 591q12 41 12 62q0 39 -82 39v41q74 -8 127 -8q51 0 125 8v-41q-59 -4 -81 -22.5t-40 -78.5l-256 -856h-43l-254 865q-18 55 -38.5 71.5t-84.5 20.5z" />
<glyph unicode="w" horiz-adv-x="1179" d="M25 932v41q94 -10 172 -10q76 0 170 10v-41q-93 0 -93 -42q0 -8 9 -54l133 -564l194 719h49l191 -723l137 566q8 41 8 53q0 45 -88 45v41q88 -8 135 -8q49 0 121 8v-41q-53 -2 -77.5 -23.5t-41.5 -74.5l-213 -859h-45l-192 742l-199 -742h-45l-211 852q-18 66 -37.5 83.5 t-76.5 21.5z" />
<glyph unicode="x" horiz-adv-x="856" d="M35 -6v41q55 4 81.5 24.5t69.5 94.5l181 321l-172 371q-25 49 -50.5 66.5t-78.5 19.5v41q92 -10 174 -10q80 0 170 10v-41q-76 -6 -76 -37q0 -16 16 -53l101 -219l120 213q20 41 21 57q0 37 -82 39v41q84 -8 133 -8q51 0 135 8v-41q-57 -4 -82.5 -20.5t-56.5 -67.5 l-160 -281l195 -422q35 -68 59.5 -86t85.5 -20v-41q-109 12 -182 12q-76 0 -178 -12v41q84 6 84 41q0 18 -19 55l-129 283l-149 -264q-27 -49 -27 -74q0 -35 86 -41v-41q-84 8 -135 8t-135 -8z" />
<glyph unicode="y" horiz-adv-x="837" d="M27 932v41q92 -10 174 -10q80 0 172 10v-41q-86 -8 -86 -41q0 -18 12 -57l162 -580l174 571q12 39 12 64q0 41 -92 43v41q66 -8 123 -8q59 0 143 8v-41q-55 -8 -81.5 -29.5t-41.5 -71.5l-311 -1001q-45 -150 -121 -199q-56 -33 -100 -33q-8 0 -16 1q-12 2 -23 2v102h16 q74 0 120 41t77 135l51 154l-239 803q-18 57 -41 74.5t-84 21.5z" />
<glyph unicode="z" horiz-adv-x="753" d="M66 0l438 913h-174q-78 0 -119 -46t-72 -167h-37l37 267h545l-440 -914h186q84 0 123 46t82 196h37l-43 -295h-563z" />
<glyph unicode="{" horiz-adv-x="526" d="M106 508q57 27 77 61.5t20 108.5v491q0 127 45 179.5t155 52.5h29q-102 -37 -102 -184v-500q0 -88 -22.5 -129t-88.5 -80q66 -39 88.5 -81t22.5 -128v-549q0 -147 102 -182h-29q-111 0 -155.5 52t-44.5 179v539q0 72 -20.5 107.5t-76.5 62.5z" />
<glyph unicode="|" horiz-adv-x="839" d="M381 -342v1708h78v-1708h-78z" />
<glyph unicode="}" horiz-adv-x="526" d="M94 -432q104 35 105 182v549q0 86 21.5 128t86.5 81q-66 39 -87 80t-21 129v500q-1 149 -105 184h31q109 0 154 -52.5t45 -179.5v-491q0 -74 20.5 -110t77.5 -60q-57 -25 -77.5 -60.5t-20.5 -109.5v-539q0 -127 -45.5 -179t-153.5 -52h-31z" />
<glyph unicode="~" horiz-adv-x="1112" d="M209 532q96 195 221 195q59 0 156 -45q88 -37 137 -37q82 0 160 115l20 -19q-39 -84 -101.5 -137t-119.5 -53q-41 0 -107 29q-131 57 -192 57q-43 0 -72.5 -23.5t-79.5 -97.5z" />
<glyph unicode="&#xa1;" horiz-adv-x="434" d="M115 862q0 41 29.5 70t70.5 29t69.5 -29t28.5 -70t-28.5 -70.5t-69.5 -29.5t-70.5 29.5t-29.5 70.5zM147 -373l29 930h82l31 -930h-142z" />
<glyph unicode="&#xa2;" horiz-adv-x="880" d="M147 680q0 283 138 426q72 72 172 80v153h55v-157q72 -12 125 -80l39 102h31v-336h-39q-33 236 -156 260v-878q59 12 98 81.5t49 182.5h64q-10 -137 -66.5 -225t-144.5 -105v-159h-55v153q-141 12 -225.5 148.5t-84.5 353.5zM301 670q0 -387 156 -420v876 q-156 -49 -156 -456z" />
<glyph unicode="&#xa3;" horiz-adv-x="878" d="M98 0q35 53 53.5 124t34.5 222l29 318h-117v75h125l17 168q23 233 106.5 357.5t218.5 124.5q187 0 203 -256h-63q-18 186 -127 186q-72 0 -121 -72q-47 -78 -72 -295l-20 -213h196v-75h-205l-22 -234q-23 -217 -131 -362q98 61 172 61q39 0 108 -20q59 -16 99 -17 q111 0 139 205h59q-18 -170 -73.5 -233.5t-184.5 -63.5h-424z" />
<glyph unicode="&#xa4;" horiz-adv-x="1132" d="M98 956l78 78l154 -153q115 82 235 82q125 0 236 -82l155 153l78 -78l-153 -153q80 -111 80 -234t-80 -231l155 -154l-78 -78l-155 154q-106 -80 -234 -80q-123 0 -235 80l-154 -154l-78 78l152 154q-80 109 -80 233.5t80 231.5zM297 569q0 -113 79 -191.5t191.5 -78.5 t191.5 79t79 191.5t-79 193.5t-188 81q-115 0 -194.5 -80t-79.5 -195z" />
<glyph unicode="&#xa5;" d="M43 1323v49q121 -14 188.5 -14t184.5 14v-49q-100 -12 -101 -53q0 -16 15 -66l155 -520l160 522q12 39 12 66q0 41 -96 51v49q82 -10 137.5 -10t141.5 10v-49q-66 -10 -92.5 -33.5t-47.5 -89.5l-92 -301h170v-76h-192l-47 -153h239v-76h-262v-414q0 -82 22.5 -104.5 t106.5 -32.5v-49q-145 16 -205 16q-61 0 -207 -16v49q84 10 106.5 32.5t22.5 104.5v414h-266v76h246l-47 153h-199v76h176l-96 309q-18 59 -47 84t-86 31z" />
<glyph unicode="&#xa6;" horiz-adv-x="839" d="M381 313h78v-655h-78v655zM381 686v680h78v-680h-78z" />
<glyph unicode="&#xa7;" horiz-adv-x="878" d="M133 592q0 94 43 151.5t139 92.5q-88 72 -120.5 128t-32.5 138q0 125 80 206t200 81q125 0 202 -86t77 -228v-14h-57q-6 115 -60.5 178.5t-144.5 63.5q-78 0 -129 -50.5t-51 -126.5q0 -59 28.5 -102t100.5 -94l194 -139q141 -98 141 -252q0 -174 -161 -267 q80 -66 111.5 -124t31.5 -140q0 -137 -83 -222t-216 -85q-131 0 -211 86t-80 229v13h60q18 -244 208 -244q86 0 138.5 55.5t52.5 145.5q0 117 -105 194l-225 164q-131 98 -131 248zM231 629q0 -100 97 -170l202 -152q119 72 119 187q0 100 -104 176l-170 123 q-78 -23 -111 -61t-33 -103z" />
<glyph unicode="&#xa8;" horiz-adv-x="845" d="M186 1272q0 39 28 65.5t67 26.5q37 0 64.5 -27.5t27.5 -66.5q0 -37 -28 -64.5t-66.5 -27.5t-65.5 27.5t-27 66.5zM481 1272q0 39 27.5 65.5t66.5 26.5q37 0 65 -28.5t28 -65.5t-28 -64.5t-66.5 -27.5t-65.5 27.5t-27 66.5z" />
<glyph unicode="&#xa9;" horiz-adv-x="1327" d="M29 676q0 262 186 448.5t448.5 186.5t448.5 -185.5t186 -447.5q0 -268 -186 -452.5t-457 -184.5q-256 0 -441 187.5t-185 447.5zM92 676q0 -233 167 -402.5t398 -169.5q244 0 411 166t167 408q0 236 -167.5 402.5t-403.5 166.5q-238 0 -405 -167t-167 -404zM375 682 q0 195 76.5 310.5t205.5 115.5q92 0 156 -70l35 68h26v-252h-32q-39 201 -170 201q-88 0 -136.5 -93.5t-48.5 -265.5q0 -371 183 -370q154 0 166 233h47q-4 -143 -64.5 -222t-165.5 -79q-125 0 -201.5 117t-76.5 307z" />
<glyph unicode="&#xaa;" horiz-adv-x="591" d="M70 575v78h471v-78h-471zM90 930q0 180 270 227v68q0 121 -81 121q-78 0 -78 -78v-8q2 -6 2 -17q2 -25 -12.5 -41t-36.5 -16q-39 0 -39 49q0 63 51 110.5t123 47.5q100 0 143 -84q23 -37 23 -131v-256q0 -106 34 -107q10 0 33 6v-47q-41 -10 -65 -10q-63 0 -82 94 q-47 -96 -135 -96q-66 0 -108 47t-42 121zM184 938q0 -49 21.5 -79t58.5 -30q96 1 96 179v102q-176 -39 -176 -172z" />
<glyph unicode="&#xab;" horiz-adv-x="673" d="M98 489l199 478h47l-135 -478l135 -489h-47zM322 489l196 478h49l-135 -478l135 -489h-49z" />
<glyph unicode="&#xac;" horiz-adv-x="839" d="M70 471v76h700v-547h-154v471h-546z" />
<glyph unicode="&#xad;" horiz-adv-x="440" d="M10 502v92h420v-92h-420z" />
<glyph unicode="&#xae;" horiz-adv-x="1327" d="M29 676q0 262 186 448.5t448.5 186.5t448.5 -185.5t186 -447.5q0 -268 -186 -452.5t-457 -184.5q-256 0 -441 187.5t-185 447.5zM92 676q0 -233 167 -402.5t398 -169.5q244 0 411 166t167 408q0 236 -167.5 402.5t-403.5 166.5q-238 0 -405 -167t-167 -404zM375 268v43 l16 2q43 4 55.5 17.5t12.5 54.5v590q0 45 -13.5 57t-70.5 17v43h278q102 0 161.5 -58.5t59.5 -161.5q0 -162 -149 -204q25 -14 38 -33t32 -66l69 -192q18 -43 31.5 -53.5t52.5 -12.5v-43q-33 4 -73.5 4t-71.5 -4q-18 49 -29 80l-80 215q-20 57 -38.5 74.5t-61.5 17.5h-29 v-270q0 -45 10.5 -56.5t63.5 -17.5v-43q-80 10 -131 10.5t-133 -10.5zM565 707h70q133 0 133 170q0 164 -127 163h-76v-333z" />
<glyph unicode="&#xaf;" horiz-adv-x="839" d="M170 1235v104h500v-104h-500z" />
<glyph unicode="&#xb0;" horiz-adv-x="878" d="M176 1114q0 109 77.5 185.5t190.5 76.5q106 0 182 -77.5t76 -186t-76.5 -185.5t-187.5 -77q-109 0 -185.5 77t-76.5 187zM258 1114q0 -76 52 -129t128 -53t129.5 52t53.5 128t-53.5 129t-125.5 53q-78 0 -131 -52t-53 -128z" />
<glyph unicode="&#xb1;" d="M98 53v123h682v-123h-682zM98 631v121h291v358h111v-358h280v-121h-280v-346h-111v346h-291z" />
<glyph unicode="&#xb2;" horiz-adv-x="579" d="M84 532v78q10 10 16 23q190 260 265 436q12 31 12 78q0 53 -31 87t-76 34q-111 0 -131 -170h-43q6 111 41 168q47 82 156 82q80 0 132 -54.5t52 -136.5q0 -76 -54 -170t-245 -356h307l-12 -99h-389z" />
<glyph unicode="&#xb3;" horiz-adv-x="579" d="M76 772h45q12 -174 129 -174q61 0 98 47t37 125q0 164 -154 164h-16v57h16q131 0 131 150q0 61 -27.5 96t-74.5 35q-104 0 -125 -148h-43q23 223 191 224q84 0 134 -54.5t50 -142.5q0 -127 -117 -180q143 -49 144 -205q0 -104 -62.5 -173t-157.5 -69q-188 0 -198 248z " />
<glyph unicode="&#xb4;" horiz-adv-x="839" d="M365 1128l159 302h183l-269 -302h-73z" />
<glyph unicode="&#xb6;" d="M86 1030q0 223 133 295q76 41 225 41h369v-49q-88 -8 -111.5 -31.5t-23.5 -103.5v-1278q0 -82 23.5 -104.5t111.5 -30.5v-52q-158 16 -299 17q-143 0 -301 -17v52q84 8 105.5 30.5t21.5 104.5v766q-254 45 -254 360zM436 -70q0 -84 14.5 -110.5t59.5 -26.5t58.5 25.5 t13.5 113.5v1233q0 88 -13.5 113t-58.5 25q-47 0 -60.5 -26t-13.5 -112v-1235z" />
<glyph unicode="&#xb7;" horiz-adv-x="403" d="M102 502q0 41 29 68.5t72 27.5t70.5 -27.5t27.5 -70.5q0 -41 -28.5 -71t-69.5 -30t-71 31t-30 72z" />
<glyph unicode="&#xb8;" horiz-adv-x="849" d="M295 -317q49 -18 84 -19q37 0 60.5 23.5t23.5 62.5q0 45 -28.5 66.5t-94.5 23.5l70 160h69l-49 -121q150 -18 150 -139q0 -66 -45.5 -109t-114.5 -43q-59 0 -125 33v62z" />
<glyph unicode="&#xb9;" horiz-adv-x="579" d="M135 1194v43q139 10 172 137h41v-727q0 -47 12.5 -58t67.5 -16v-43q-51 6 -133 7q-80 0 -131 -7v43q55 4 67.5 15.5t12.5 58.5v547h-109z" />
<glyph unicode="&#xba;" horiz-adv-x="591" d="M59 575v78h471v-78h-471zM88 1077q0 137 59.5 226.5t151.5 89.5q90 0 146.5 -89.5t56.5 -232.5q0 -133 -58.5 -221t-148.5 -88t-148.5 88t-58.5 227zM197 1075q0 -268 98 -268q47 0 73.5 67.5t26.5 186.5q0 287 -98 287q-100 0 -100 -273z" />
<glyph unicode="&#xbb;" horiz-adv-x="673" d="M106 0l136 489l-136 478h50l196 -478l-196 -489h-50zM330 0l135 489l-135 478h47l198 -478l-198 -489h-47z" />
<glyph unicode="&#xbc;" horiz-adv-x="1218" d="M135 1196v41q66 4 112 41t60 96h41v-727q0 -47 12.5 -58t67.5 -16v-43q-72 8 -133 9q-59 0 -131 -9v43q55 4 67.5 16.5t12.5 57.5v549h-109zM262 0l625 1335h69l-626 -1335h-68zM686 209l283 614h100v-524h102v-90h-102v-227h-104v227h-279zM778 299h189v420z" />
<glyph unicode="&#xbd;" horiz-adv-x="1218" d="M135 1196v41q139 10 172 137h39v-727q0 -45 12.5 -57t67.5 -17v-43q-72 8 -131 8.5t-131 -8.5v43q55 4 67.5 16.5t12.5 57.5v549h-109zM260 0l627 1335h69l-626 -1335h-70zM721 0v78q16 20 16 22q276 375 277 512q0 53 -30 87t-77 34q-111 0 -131 -168h-43 q14 248 197 248q82 0 133 -53t51 -137q0 -74 -54 -168.5t-245 -356.5h307l-12 -98h-389z" />
<glyph unicode="&#xbe;" horiz-adv-x="1218" d="M76 772h45q6 -90 36.5 -132t92 -42t99.5 47t38 125q0 164 -154 164h-18v55h18q61 0 96.5 40t35.5 112q0 59 -29 96t-76 37q-102 0 -127 -150h-41q20 223 191 224q82 0 133 -54.5t51 -140.5q0 -127 -117 -182q143 -51 144 -205q0 -104 -62.5 -173t-157.5 -69 q-190 0 -198 248zM262 0l627 1335h67l-626 -1335h-68zM686 209l283 614h100v-524h102v-90h-102v-227h-104v227h-279zM778 299h189v420z" />
<glyph unicode="&#xbf;" horiz-adv-x="647" d="M49 -94q0 94 33 159.5t121 153.5q82 82 113.5 153.5t25.5 162.5q-2 24 -2 40h70q6 -74 6 -108q0 -106 -23.5 -165.5t-107.5 -174.5q-88 -117 -88 -221q0 -80 39.5 -128t105.5 -48q82 0 131 62.5t57 178.5h45q0 -172 -72.5 -265t-205.5 -93q-113 0 -180.5 80t-67.5 213z M260 866q0 41 29.5 70t72.5 29q39 0 68 -30t29 -71q0 -43 -28 -70.5t-71 -27.5t-71.5 28.5t-28.5 71.5z" />
<glyph unicode="&#xc0;" horiz-adv-x="1073" d="M27 -6v49q76 6 100.5 29.5t52.5 113.5l377 1223l342 -1245q20 -72 46 -92.5t102 -28.5v-49q-121 16 -199 16t-201 -16v49q98 10 98 61q0 25 -10 70l-55 221h-373l-57 -192q-18 -74 -19 -99q0 -31 24 -44t83 -17v-49q-82 10 -156 10q-72 0 -155 -10zM254 1763h199 l204 -280h-82zM326 459h338l-154 608z" />
<glyph unicode="&#xc1;" horiz-adv-x="1073" d="M27 -6v49q76 6 100.5 29.5t52.5 113.5l377 1223l342 -1245q20 -72 46 -92.5t102 -28.5v-49q-121 16 -199 16t-201 -16v49q98 10 98 61q0 25 -10 70l-55 221h-373l-57 -192q-18 -74 -19 -99q0 -31 24 -44t83 -17v-49q-82 10 -156 10q-72 0 -155 -10zM326 459h338l-154 608 zM475 1483l207 280h199l-324 -280h-82z" />
<glyph unicode="&#xc2;" horiz-adv-x="1073" d="M27 -6v49q76 6 100.5 29.5t52.5 113.5l377 1223l342 -1245q20 -72 46 -92.5t102 -28.5v-49q-121 16 -199 16t-201 -16v49q98 10 98 61q0 25 -10 70l-55 221h-373l-57 -192q-18 -74 -19 -99q0 -31 24 -44t83 -17v-49q-82 10 -156 10q-72 0 -155 -10zM281 1485l233 278h90 l234 -278h-82l-197 172l-197 -172h-81zM326 459h338l-154 608z" />
<glyph unicode="&#xc3;" horiz-adv-x="1073" d="M27 -6v49q76 6 100.5 29.5t52.5 113.5l377 1223l342 -1245q20 -72 46 -92.5t102 -28.5v-49q-121 16 -199 16t-201 -16v49q98 10 98 61q0 25 -10 70l-55 221h-373l-57 -192q-18 -74 -19 -99q0 -31 24 -44t83 -17v-49q-82 10 -156 10q-72 0 -155 -10zM285 1538 q23 104 61.5 152.5t99.5 48.5q55 0 119 -56q49 -43 66.5 -53t42.5 -10q72 0 100 106l47 -12q-12 -88 -39 -129q-51 -82 -125 -82q-55 0 -139 78q-47 41 -86 41q-67 0 -98 -100zM326 459h338l-154 608z" />
<glyph unicode="&#xc4;" horiz-adv-x="1073" d="M27 -6v49q76 6 100.5 29.5t52.5 113.5l377 1223l342 -1245q20 -72 46 -92.5t102 -28.5v-49q-121 16 -199 16t-201 -16v49q98 10 98 61q0 25 -10 70l-55 221h-373l-57 -192q-18 -74 -19 -99q0 -31 24 -44t83 -17v-49q-82 10 -156 10q-72 0 -155 -10zM313 1626 q0 41 30 69.5t73 28.5q41 0 68.5 -27.5t27.5 -70.5t-28.5 -71.5t-69.5 -28.5t-71 29.5t-30 70.5zM326 459h338l-154 608zM608 1626q0 41 30 69.5t73 28.5q41 0 68.5 -27.5t27.5 -70.5q0 -41 -28.5 -70.5t-69.5 -29.5t-71 29.5t-30 70.5z" />
<glyph unicode="&#xc5;" horiz-adv-x="1073" d="M27 -6v49q76 6 100.5 29.5t52.5 113.5l377 1223l342 -1245q20 -72 46 -92.5t102 -28.5v-49q-121 16 -199 16t-201 -16v49q98 10 98 61q0 25 -10 70l-55 221h-373l-57 -192q-18 -74 -19 -99q0 -31 24 -44t83 -17v-49q-82 10 -156 10q-72 0 -155 -10zM326 459h338l-154 608 zM399 1634q0 63 46 108.5t112 45.5q63 0 108.5 -46t45.5 -109.5t-46.5 -109.5t-109.5 -46q-66 0 -111 46t-45 111zM467 1632q0 -37 25.5 -62.5t62.5 -25.5t62.5 25.5t25.5 62.5q0 35 -25.5 60.5t-60.5 25.5q-39 0 -64.5 -24.5t-25.5 -61.5z" />
<glyph unicode="&#xc6;" horiz-adv-x="1488" d="M25 -6v51q74 4 105.5 30.5t76.5 117.5l541 1173h612l29 -307h-39q-33 150 -70 197t-121 47h-225v-562h223q53 0 71.5 33t22.5 135h41v-401h-41q-4 102 -24.5 136t-79.5 34h-213v-494q0 -72 21.5 -96.5t86.5 -24.5h105q98 0 142 54.5t79 212.5h39l-39 -330h-723v51 q88 8 111.5 30.5t23.5 104.5v277h-383l-139 -305q-16 -37 -16 -63.5t23.5 -36t88.5 -13.5v-51q-127 10 -164 10q-35 0 -165 -10zM426 526h354v772z" />
<glyph unicode="&#xc7;" horiz-adv-x="1003" d="M94 678q0 324 122 519.5t323 195.5q156 0 252 -121l55 117h33v-404h-41q-68 342 -279 342q-145 0 -224 -168t-79 -475q0 -295 79 -456.5t222 -161.5q121 0 192.5 103t81.5 292h60q-6 -217 -95 -345.5t-243 -140.5l-39 -94q156 -14 156 -147q0 -72 -46 -117t-118 -45 q-57 0 -129 33v67q47 -18 84 -18q39 0 64.5 26.5t25.5 65.5q0 45 -29.5 65.5t-99.5 24.5l59 141q-90 14 -157 66q-111 86 -170.5 251t-59.5 384z" />
<glyph unicode="&#xc8;" horiz-adv-x="911" d="M63 0v51q84 8 107 30.5t23 104.5v994q0 82 -23 104.5t-107 30.5v51h713l29 -307h-39q-31 147 -69 195.5t-122 48.5h-229v-562h227q53 0 72 32t23 136h41v-401h-41q-4 102 -24.5 136t-78.5 34h-219v-494q0 -72 21.5 -96.5t85.5 -24.5h112q96 0 140.5 54.5t78.5 212.5h39 l-39 -330h-721zM186 1763h199l207 -280h-82z" />
<glyph unicode="&#xc9;" horiz-adv-x="911" d="M63 0v51q84 8 107 30.5t23 104.5v994q0 82 -23 104.5t-107 30.5v51h713l29 -307h-39q-31 147 -69 195.5t-122 48.5h-229v-562h227q53 0 72 32t23 136h41v-401h-41q-4 102 -24.5 136t-78.5 34h-219v-494q0 -72 21.5 -96.5t85.5 -24.5h112q96 0 140.5 54.5t78.5 212.5h39 l-39 -330h-721zM358 1483l205 280h199l-322 -280h-82z" />
<glyph unicode="&#xca;" horiz-adv-x="911" d="M63 0v51q84 8 107 30.5t23 104.5v994q0 82 -23 104.5t-107 30.5v51h713l29 -307h-39q-31 147 -69 195.5t-122 48.5h-229v-562h227q53 0 72 32t23 136h41v-401h-41q-4 102 -24.5 136t-78.5 34h-219v-494q0 -72 21.5 -96.5t85.5 -24.5h112q96 0 140.5 54.5t78.5 212.5h39 l-39 -330h-721zM182 1485l234 276h92l231 -276h-80l-198 170l-197 -170h-82z" />
<glyph unicode="&#xcb;" horiz-adv-x="911" d="M63 0v51q84 8 107 30.5t23 104.5v994q0 82 -23 104.5t-107 30.5v51h713l29 -307h-39q-31 147 -69 195.5t-122 48.5h-229v-562h227q53 0 72 32t23 136h41v-401h-41q-4 102 -24.5 136t-78.5 34h-219v-494q0 -72 21.5 -96.5t85.5 -24.5h112q96 0 140.5 54.5t78.5 212.5h39 l-39 -330h-721zM197 1626q0 43 28.5 70.5t71.5 27.5q41 0 69.5 -28.5t28.5 -69.5t-28.5 -70.5t-69.5 -29.5t-70.5 29.5t-29.5 70.5zM492 1626q0 43 28.5 70.5t71.5 27.5q41 0 69.5 -28.5t28.5 -69.5t-29.5 -70.5t-70.5 -29.5t-69.5 29.5t-28.5 70.5z" />
<glyph unicode="&#xcc;" horiz-adv-x="534" d="M-18 1763h194l195 -280h-82zM61 -6v49q86 8 107.5 31.5t21.5 105.5v1006q0 82 -22.5 104.5t-106.5 32.5v49q127 -14 207 -14q78 0 205 14v-49q-84 -10 -106.5 -32.5t-22.5 -104.5v-1006q0 -82 21.5 -105.5t107.5 -31.5v-49q-145 16 -205 16q-61 0 -207 -16z" />
<glyph unicode="&#xcd;" horiz-adv-x="540" d="M63 -6v49q86 8 108 31.5t22 105.5v1006q0 82 -23 104.5t-107 32.5v49q127 -14 207 -14q78 0 205 14v-49q-84 -10 -106.5 -32.5t-22.5 -104.5v-1006q0 -82 21.5 -105.5t107.5 -31.5v-49q-145 16 -205 16q-61 0 -207 -16zM176 1483l193 280h194l-305 -280h-82z" />
<glyph unicode="&#xce;" horiz-adv-x="550" d="M10 1485l219 276h93l219 -276h-80l-185 170l-184 -170h-82zM70 -6v49q86 8 107.5 31.5t21.5 105.5v1006q0 82 -22.5 104.5t-106.5 32.5v49q127 -14 206 -14q78 0 205 14v-49q-84 -10 -106.5 -32.5t-22.5 -104.5v-1006q0 -82 21.5 -105.5t107.5 -31.5v-49q-145 16 -205 16 q-61 0 -206 -16z" />
<glyph unicode="&#xcf;" horiz-adv-x="542" d="M41 1626q0 43 28.5 70.5t71.5 27.5t71 -28.5t28 -69.5t-29 -70.5t-70 -29.5t-70.5 29.5t-29.5 70.5zM63 -6v49q86 8 108 31.5t22 105.5v1006q0 82 -23 104.5t-107 32.5v49q127 -14 205 -14q80 0 207 14v-49q-84 -10 -106.5 -32.5t-22.5 -104.5v-1006q0 -82 21.5 -105.5 t107.5 -31.5v-49q-145 16 -207 16q-63 0 -205 -16zM305 1626q0 43 29 70.5t74 27.5q41 0 68.5 -28.5t27.5 -69.5t-29 -70.5t-69.5 -29.5t-70.5 29.5t-30 70.5z" />
<glyph unicode="&#xd0;" horiz-adv-x="1060" d="M55 0v49q84 10 106.5 32.5t22.5 104.5v492h-129v76h129v426q0 82 -22.5 104.5t-106.5 30.5v51h398q145 0 243.5 -55.5t165.5 -175.5q111 -197 111 -453q0 -178 -56.5 -335t-150.5 -241q-123 -106 -315 -106h-396zM338 166q0 -68 18.5 -87.5t79.5 -19.5q199 0 283 154 q94 168 94 471q0 297 -94 467q-84 152 -275 152h-106v-549h242v-76h-242v-512z" />
<glyph unicode="&#xd1;" horiz-adv-x="1122" d="M61 1323v49q78 -6 140 -6q53 0 118 6l551 -1024v838q0 82 -22.5 104.5t-108.5 32.5v49q117 -10 166 -10q53 0 160 10v-49q-88 -10 -110.5 -32.5t-22.5 -104.5v-1227h-27q-39 76 -170 326l-479 897v-1002q0 -82 21.5 -105.5t109.5 -31.5v-49q-119 10 -164 10 q-51 0 -160 -10v49q88 8 111 31.5t23 105.5v1082q-37 53 -136 61zM295 1538q23 106 60.5 153.5t99.5 47.5q59 0 141 -74q51 -45 90 -45q68 0 98 106l47 -12q-14 -92 -38 -129q-51 -82 -125 -82q-55 0 -142 78q-47 41 -84 41q-67 0 -98 -100z" />
<glyph unicode="&#xd2;" horiz-adv-x="1056" d="M88 680q0 324 119.5 518.5t318.5 194.5q88 0 168 -42t131 -118q141 -205 142 -571q0 -190 -57.5 -356.5t-147.5 -244.5q-100 -86 -232 -86q-176 0 -288 142q-70 84 -112 238.5t-42 324.5zM242 1763h198l205 -280h-82zM250 692q0 -313 74.5 -486t207.5 -173q129 0 200 169 t71 478q0 373 -94 532q-72 123 -181 123q-129 0 -203.5 -172t-74.5 -471z" />
<glyph unicode="&#xd3;" horiz-adv-x="1056" d="M88 680q0 324 119.5 518.5t318.5 194.5q88 0 168 -42t131 -118q141 -205 142 -571q0 -190 -57.5 -356.5t-147.5 -244.5q-100 -86 -232 -86q-176 0 -288 142q-70 84 -112 238.5t-42 324.5zM250 692q0 -313 74.5 -486t207.5 -173q129 0 200 169t71 478q0 373 -94 532 q-72 123 -181 123q-129 0 -203.5 -172t-74.5 -471zM434 1483l205 280h199l-322 -280h-82z" />
<glyph unicode="&#xd4;" horiz-adv-x="1056" d="M88 680q0 324 119.5 518.5t318.5 194.5q88 0 168 -42t131 -118q141 -205 142 -571q0 -190 -57.5 -356.5t-147.5 -244.5q-100 -86 -232 -86q-176 0 -288 142q-70 84 -112 238.5t-42 324.5zM250 692q0 -313 74.5 -486t207.5 -173q129 0 200 169t71 478q0 373 -94 532 q-72 123 -181 123q-129 0 -203.5 -172t-74.5 -471zM250 1485l233 276h92l232 -276h-80l-199 170l-196 -170h-82z" />
<glyph unicode="&#xd5;" horiz-adv-x="1056" d="M88 680q0 324 119.5 518.5t318.5 194.5q88 0 168 -42t131 -118q141 -205 142 -571q0 -190 -57.5 -356.5t-147.5 -244.5q-100 -86 -232 -86q-176 0 -288 142q-70 84 -112 238.5t-42 324.5zM250 692q0 -313 74.5 -486t207.5 -173q129 0 200 169t71 478q0 373 -94 532 q-72 123 -181 123q-129 0 -203.5 -172t-74.5 -471zM270 1538q23 106 61 153.5t99 47.5q57 0 139 -74q51 -45 90 -45q70 0 99 106l47 -12q-12 -88 -39 -129q-51 -82 -123 -82q-55 0 -141 78q-47 41 -86 41q-68 0 -99 -100z" />
<glyph unicode="&#xd6;" horiz-adv-x="1056" d="M88 680q0 324 119.5 518.5t318.5 194.5q88 0 168 -42t131 -118q141 -205 142 -571q0 -190 -57.5 -356.5t-147.5 -244.5q-100 -86 -232 -86q-176 0 -288 142q-70 84 -112 238.5t-42 324.5zM250 692q0 -313 74.5 -486t207.5 -173q129 0 200 169t71 478q0 373 -94 532 q-72 123 -181 123q-129 0 -203.5 -172t-74.5 -471zM281 1626q0 43 28.5 70.5t71.5 27.5t70.5 -28.5t27.5 -69.5t-28.5 -70.5t-69.5 -29.5t-70.5 29.5t-29.5 70.5zM575 1626q0 43 29 70.5t72 27.5q41 0 69.5 -28.5t28.5 -69.5t-29.5 -70.5t-70.5 -29.5t-70 29.5t-29 70.5z " />
<glyph unicode="&#xd7;" d="M131 987l72 88l237 -299l238 295l65 -82l-235 -297l237 -297l-69 -90l-240 299l-235 -295l-68 84l238 295z" />
<glyph unicode="&#xd8;" horiz-adv-x="1056" d="M45 0l137 209q-94 199 -94 469q0 324 121 519.5t319 195.5q188 0 312 -176l98 149h74l-138 -211q92 -184 93 -459q0 -328 -119 -524.5t-320 -196.5q-188 0 -311 172l-96 -147h-76zM246 664q-1 -169 30 -316l484 752q-76 236 -230 235q-133 0 -208.5 -179t-75.5 -492z M297 264q72 -231 231 -231q133 0 206 178t73 508q0 178 -27 299z" />
<glyph unicode="&#xd9;" horiz-adv-x="1110" d="M53 1323v49q127 -14 207 -14t203 14v-49q-84 -10 -105.5 -32.5t-21.5 -104.5v-793q0 -152 35 -211q61 -115 217 -114q135 0 209 88q66 76 65 250v780q0 82 -22.5 104.5t-108.5 32.5v49q117 -10 166 -10q53 0 160 10v-49q-88 -10 -110.5 -32.5t-22.5 -104.5v-768 q0 -174 -58 -273q-94 -168 -309 -168q-223 0 -321 177q-53 92 -54 256v776q0 82 -22.5 104.5t-106.5 32.5zM305 1763h199l207 -280h-82z" />
<glyph unicode="&#xda;" horiz-adv-x="1110" d="M53 1323v49q127 -14 207 -14t203 14v-49q-84 -10 -105.5 -32.5t-21.5 -104.5v-793q0 -152 35 -211q61 -115 217 -114q135 0 209 88q66 76 65 250v780q0 82 -22.5 104.5t-108.5 32.5v49q117 -10 166 -10q53 0 160 10v-49q-88 -10 -110.5 -32.5t-22.5 -104.5v-768 q0 -174 -58 -273q-94 -168 -309 -168q-223 0 -321 177q-53 92 -54 256v776q0 82 -22.5 104.5t-106.5 32.5zM492 1483l206 280h199l-322 -280h-83z" />
<glyph unicode="&#xdb;" horiz-adv-x="1110" d="M53 1323v49q127 -14 207 -14t203 14v-49q-84 -10 -105.5 -32.5t-21.5 -104.5v-793q0 -152 35 -211q61 -115 217 -114q135 0 209 88q66 76 65 250v780q0 82 -22.5 104.5t-108.5 32.5v49q117 -10 166 -10q53 0 160 10v-49q-88 -10 -110.5 -32.5t-22.5 -104.5v-768 q0 -174 -58 -273q-94 -168 -309 -168q-223 0 -321 177q-53 92 -54 256v776q0 82 -22.5 104.5t-106.5 32.5zM319 1485l232 276h92l234 -276h-82l-197 170l-197 -170h-82z" />
<glyph unicode="&#xdc;" horiz-adv-x="1110" d="M53 1323v49q127 -14 207 -14t203 14v-49q-84 -10 -105.5 -32.5t-21.5 -104.5v-793q0 -152 35 -211q61 -115 217 -114q135 0 209 88q66 76 65 250v780q0 82 -22.5 104.5t-108.5 32.5v49q117 -10 166 -10q53 0 160 10v-49q-88 -10 -110.5 -32.5t-22.5 -104.5v-768 q0 -174 -58 -273q-94 -168 -309 -168q-223 0 -321 177q-53 92 -54 256v776q0 82 -22.5 104.5t-106.5 32.5zM352 1626q0 41 30 69.5t73 28.5q41 0 68.5 -27.5t27.5 -70.5q0 -41 -28.5 -70.5t-69.5 -29.5q-39 0 -70 29.5t-31 70.5zM647 1626q0 41 29 69.5t74 28.5 q41 0 68.5 -27.5t27.5 -70.5q0 -41 -29 -70.5t-69.5 -29.5t-70.5 29.5t-30 70.5z" />
<glyph unicode="&#xdd;" horiz-adv-x="989" d="M33 1323v49q121 -14 205 -14q88 0 204 14v-49q-63 -6 -87.5 -17.5t-24.5 -35.5q0 -23 14 -66l207 -524l203 526q16 45 16 64q0 25 -24.5 36t-86.5 17v49q84 -10 152 -10q66 0 154 10v-49q-70 -10 -96.5 -30.5t-53.5 -80.5l-240 -616v-416q0 -82 21.5 -105.5t108.5 -31.5 v-49q-145 16 -207 16q-63 0 -205 -16v49q86 8 107.5 31.5t21.5 105.5v416l-240 614q-27 63 -54.5 84t-94.5 29zM440 1483l207 280h197l-322 -280h-82z" />
<glyph unicode="&#xde;" horiz-adv-x="913" d="M63 -6v49q86 8 108 31.5t22 105.5v1006q0 82 -23 104.5t-107 32.5v49q127 -14 207 -14q78 0 205 14v-49q-84 -10 -106.5 -32.5t-22.5 -104.5v-37h139q201 0 289 -109q86 -113 86 -266q0 -172 -96 -272.5t-262 -100.5h-156v-221q0 -82 21.5 -105.5t107.5 -31.5v-49 q-141 16 -205 16q-66 0 -207 -16zM346 465h109q145 0 202 104q49 82 50 213q0 84 -25 155t-64 103q-51 45 -155 45h-117v-620z" />
<glyph unicode="&#xdf;" horiz-adv-x="864" d="M45 -6v41q70 4 90.5 24.5t20.5 85.5v846q0 162 55 252q35 61 98.5 98t134.5 37q115 0 192 -89t77 -224q0 -104 -44 -176t-143 -125q260 -82 260 -395q0 -164 -74.5 -273.5t-187.5 -109.5q-68 0 -135 59v55q47 -29 82 -28q78 0 123 76.5t45 207.5q0 351 -281 367v63 q113 4 162 73t49 214q0 117 -33.5 181.5t-97.5 64.5q-31 0 -62.5 -19.5t-45.5 -48.5q-31 -59 -31 -182v-1073q-72 6 -115 6q-59 0 -139 -8z" />
<glyph unicode="&#xe0;" horiz-adv-x="784" d="M76 244q0 160 121 243q123 88 297 115v146q0 182 -123 182q-57 0 -91 -32t-34 -83q0 -18 2 -37v-22q0 -84 -72 -84q-59 0 -59 69q0 100 79.5 172t188.5 72q72 0 131 -33.5t88 -93.5q33 -59 33 -201v-428q0 -104 13.5 -143t47.5 -39q14 0 41 6v-53q-57 -14 -96 -14 q-115 0 -129 168q-41 -92 -89 -132t-124 -40q-100 0 -162.5 72.5t-62.5 189.5zM147 1430h183l159 -302h-71zM221 256q0 -86 34 -136t91 -50q78 0 113 72.5t35 230.5v176q-143 -33 -208 -102.5t-65 -190.5z" />
<glyph unicode="&#xe1;" horiz-adv-x="784" d="M76 244q0 160 121 243q123 88 297 115v146q0 182 -123 182q-57 0 -91 -32t-34 -83q0 -18 2 -37v-22q0 -84 -72 -84q-59 0 -59 69q0 100 79.5 172t188.5 72q72 0 131 -33.5t88 -93.5q33 -59 33 -201v-428q0 -104 13.5 -143t47.5 -39q14 0 41 6v-53q-57 -14 -96 -14 q-115 0 -129 168q-41 -92 -89 -132t-124 -40q-100 0 -162.5 72.5t-62.5 189.5zM221 256q0 -86 34 -136t91 -50q78 0 113 72.5t35 230.5v176q-143 -33 -208 -102.5t-65 -190.5zM319 1128l162 302h181l-269 -302h-74z" />
<glyph unicode="&#xe2;" horiz-adv-x="784" d="M76 244q0 160 121 243q123 88 297 115v146q0 182 -123 182q-57 0 -91 -32t-34 -83q0 -18 2 -37v-22q0 -84 -72 -84q-59 0 -59 69q0 100 79.5 172t188.5 72q72 0 131 -33.5t88 -93.5q33 -59 33 -201v-428q0 -104 13.5 -143t47.5 -39q14 0 41 6v-53q-57 -14 -96 -14 q-115 0 -129 168q-41 -92 -89 -132t-124 -40q-100 0 -162.5 72.5t-62.5 189.5zM139 1130l217 300h76l217 -300h-78l-178 177l-176 -177h-78zM221 256q0 -86 34 -136t91 -50q78 0 113 72.5t35 230.5v176q-143 -33 -208 -102.5t-65 -190.5z" />
<glyph unicode="&#xe3;" horiz-adv-x="784" d="M76 244q0 160 121 243q123 88 297 115v146q0 182 -123 182q-57 0 -91 -32t-34 -83q0 -18 2 -37v-22q0 -84 -72 -84q-59 0 -59 69q0 100 79.5 172t188.5 72q72 0 131 -33.5t88 -93.5q33 -59 33 -201v-428q0 -104 13.5 -143t47.5 -39q14 0 41 6v-53q-57 -14 -96 -14 q-115 0 -129 168q-41 -92 -89 -132t-124 -40q-100 0 -162.5 72.5t-62.5 189.5zM154 1198q25 111 58.5 156t92.5 45q53 0 127 -68q53 -51 90 -51q35 0 56.5 23.5t37.5 82.5l46 -12q-29 -211 -156 -211q-53 0 -133 78q-43 41 -80 41q-63 0 -94 -100zM221 256q0 -86 34 -136 t91 -50q78 0 113 72.5t35 230.5v176q-143 -33 -208 -102.5t-65 -190.5z" />
<glyph unicode="&#xe4;" horiz-adv-x="784" d="M76 244q0 160 121 243q123 88 297 115v146q0 182 -123 182q-57 0 -91 -32t-34 -83q0 -18 2 -37v-22q0 -84 -72 -84q-59 0 -59 69q0 100 79.5 172t188.5 72q72 0 131 -33.5t88 -93.5q33 -59 33 -201v-428q0 -104 13.5 -143t47.5 -39q14 0 41 6v-53q-57 -14 -96 -14 q-115 0 -129 168q-41 -92 -89 -132t-124 -40q-100 0 -162.5 72.5t-62.5 189.5zM152 1272q0 39 27.5 65.5t66.5 26.5q37 0 64.5 -28.5t27.5 -65.5t-27.5 -64.5t-66.5 -27.5t-65.5 27.5t-26.5 66.5zM221 256q0 -86 34 -136t91 -50q78 0 113 72.5t35 230.5v176 q-143 -33 -208 -102.5t-65 -190.5zM446 1272q0 39 28 65.5t67 26.5q35 0 63.5 -28.5t28.5 -65.5t-27.5 -64.5t-66.5 -27.5t-66 27.5t-27 66.5z" />
<glyph unicode="&#xe5;" horiz-adv-x="784" d="M76 244q0 160 121 243q123 88 297 115v146q0 182 -123 182q-57 0 -91 -32t-34 -83q0 -18 2 -37v-22q0 -84 -72 -84q-59 0 -59 69q0 100 79.5 172t188.5 72q72 0 131 -33.5t88 -93.5q33 -59 33 -201v-428q0 -104 13.5 -143t47.5 -39q14 0 41 6v-53q-57 -14 -96 -14 q-115 0 -129 168q-41 -92 -89 -132t-124 -40q-100 0 -162.5 72.5t-62.5 189.5zM221 256q0 -86 34 -136t91 -50q78 0 113 72.5t35 230.5v176q-143 -33 -208 -102.5t-65 -190.5zM250 1292q0 63 47 109.5t113 46.5q61 0 107 -46t46 -109.5t-46 -109.5t-109 -46q-66 0 -112 45 t-46 110zM317 1292q0 -35 27 -61.5t64 -26.5q35 0 61.5 26.5t26.5 61.5t-27 61.5t-61.5 26.5t-62.5 -26.5t-28 -61.5z" />
<glyph unicode="&#xe6;" horiz-adv-x="1198" d="M74 240q0 289 430 335v173q0 182 -133 182q-55 0 -90 -30t-35 -77v-26q2 -20 2 -39q0 -86 -72 -86q-59 0 -59 69q0 100 78.5 172t187.5 72q147 0 217 -121q88 121 223 121q139 0 216 -123t83 -358h-473q2 -219 37 -316q51 -139 166 -139q86 0 139.5 68.5t67.5 197.5h65 q-16 -160 -92 -246.5t-201 -86.5q-201 0 -288 225q-41 -123 -96.5 -174t-145.5 -51q-100 0 -163.5 72.5t-63.5 185.5zM219 250q0 -80 36 -130t93 -50q156 0 156 303v141q-147 -23 -216 -86t-69 -178zM651 580h328q-10 352 -158 352q-74 0 -114 -84t-56 -268z" />
<glyph unicode="&#xe7;" horiz-adv-x="735" d="M78 475q0 229 89 372.5t234 143.5q102 0 168 -86l41 103h31v-336h-39q-41 264 -180 264q-88 0 -138.5 -123t-50.5 -342q0 -426 185 -426q145 0 174 270h65q-29 -307 -227 -335l-41 -101q78 -10 113 -43t35 -96q0 -70 -44 -111t-116 -41q-57 0 -123 33v62q47 -18 84 -19 q39 0 60.5 22.5t21.5 63.5q0 45 -26.5 65.5t-94.5 24.5l59 140q-131 25 -205.5 156.5t-74.5 338.5z" />
<glyph unicode="&#xe8;" horiz-adv-x="772" d="M76 483q0 225 88 364.5t231 139.5q139 0 217 -125t84 -356h-473q6 -231 45 -336q49 -123 158 -123q84 0 138.5 69.5t68.5 196.5h63q-14 -158 -91 -245.5t-197 -87.5q-154 0 -243 136t-89 367zM150 1430h180l162 -302h-74zM227 580h326q-12 354 -160 354q-141 0 -166 -354 z" />
<glyph unicode="&#xe9;" horiz-adv-x="772" d="M76 483q0 225 88 364.5t231 139.5q139 0 217 -125t84 -356h-473q6 -231 45 -336q49 -123 158 -123q84 0 138.5 69.5t68.5 196.5h63q-14 -158 -91 -245.5t-197 -87.5q-154 0 -243 136t-89 367zM227 580h326q-12 354 -160 354q-141 0 -166 -354zM317 1128l162 302h180 l-268 -302h-74z" />
<glyph unicode="&#xea;" horiz-adv-x="772" d="M76 483q0 225 88 364.5t231 139.5q139 0 217 -125t84 -356h-473q6 -231 45 -336q49 -123 158 -123q84 0 138.5 69.5t68.5 196.5h63q-14 -158 -91 -245.5t-197 -87.5q-154 0 -243 136t-89 367zM139 1130l215 300h80l215 -300h-78l-176 177l-178 -177h-78zM227 580h326 q-12 354 -160 354q-141 0 -166 -354z" />
<glyph unicode="&#xeb;" horiz-adv-x="772" d="M76 483q0 225 88 364.5t231 139.5q139 0 217 -125t84 -356h-473q6 -231 45 -336q49 -123 158 -123q84 0 138.5 69.5t68.5 196.5h63q-14 -158 -91 -245.5t-197 -87.5q-154 0 -243 136t-89 367zM164 1272q0 37 27.5 64.5t66.5 27.5q37 0 64.5 -27.5t27.5 -66.5t-26.5 -65.5 t-65.5 -26.5t-66.5 27.5t-27.5 66.5zM227 580h326q-12 354 -160 354q-141 0 -166 -354zM459 1272q0 39 27.5 65.5t66.5 26.5q37 0 64.5 -27.5t27.5 -66.5q0 -37 -27.5 -64.5t-66.5 -27.5t-65.5 27.5t-26.5 66.5z" />
<glyph unicode="&#xec;" horiz-adv-x="468" d="M-20 1430h182l153 -302h-73zM51 -6v41q70 4 90.5 24.5t20.5 85.5v648q0 80 -17.5 99t-91.5 21v35q131 14 252 53v-856q0 -66 19.5 -86t91.5 -24v-41q-102 12 -182 12t-183 -12z" />
<glyph unicode="&#xed;" horiz-adv-x="489" d="M59 -6v41q72 4 91.5 24.5t19.5 85.5v648q0 80 -17.5 99t-91.5 21v35q129 14 252 53v-856q0 -66 19.5 -86t91.5 -24v-41q-102 12 -182 12t-183 -12zM160 1128l153 302h181l-263 -302h-71z" />
<glyph unicode="&#xee;" horiz-adv-x="503" d="M6 1130l197 300h78l194 -300h-74l-159 177l-162 -177h-74zM68 -6v41q72 4 91 24.5t19 85.5v648q0 80 -17.5 99t-90.5 21v35q127 14 252 53v-856q0 -66 19 -86t91 -24v-41q-102 12 -182 12t-182 -12z" />
<glyph unicode="&#xef;" horiz-adv-x="483" d="M20 1272q0 39 28 65.5t67 26.5q37 0 64.5 -27.5t27.5 -66.5q0 -37 -27.5 -64.5t-66.5 -27.5t-66 27.5t-27 66.5zM57 -6v41q70 4 90.5 24.5t20.5 85.5v648q0 80 -17.5 99t-91.5 21v35q131 14 252 53v-856q0 -66 20.5 -86t90.5 -24v-41q-102 12 -182 12t-183 -12zM254 1272 q0 37 27.5 64.5t66.5 27.5t65.5 -27.5t26.5 -66.5t-26.5 -65.5t-65.5 -26.5t-66.5 27.5t-27.5 66.5z" />
<glyph unicode="&#xf0;" horiz-adv-x="788" d="M76 487q0 217 90 358.5t227 141.5q35 0 66 -18l-99 174l-120 -94l-31 57l121 96l-88 156l39 31l102 -144l127 101l31 -60l-121 -96l135 -213q90 -139 125 -250t35 -248q0 -217 -89 -358t-229 -141q-141 0 -231 142t-90 365zM227 500q0 -467 170 -467q166 0 166 440 q0 461 -168 461t-168 -434z" />
<glyph unicode="&#xf1;" horiz-adv-x="917" d="M59 -6v41q72 4 91.5 24.5t19.5 85.5v633q0 84 -14.5 104.5t-73.5 22.5h-21v37q139 27 220 62q12 -66 18 -179q82 160 223 160q131 0 199 -117q41 -78 41 -221v-502q0 -66 20.5 -86t89.5 -24v-41q-100 12 -178 12q-80 0 -178 -12v41q61 4 81.5 24.5t20.5 81.5v514 q0 123 -28 174q-35 63 -111 64q-90 0 -135 -82q-31 -59 -31 -164v-506q0 -59 20.5 -81.5t80.5 -24.5v-41q-98 12 -176 12t-179 -12zM215 1198q25 111 58.5 156t93.5 45q57 0 127 -68q53 -51 90 -51q35 0 56.5 23.5t37.5 82.5l45 -12q-29 -211 -156 -211q-53 0 -133 78 q-43 41 -80 41q-63 0 -94 -100z" />
<glyph unicode="&#xf2;" horiz-adv-x="788" d="M76 483q0 225 91 366.5t234 141.5q141 0 227.5 -142t86.5 -376q0 -133 -44 -254t-114 -178q-72 -63 -162 -64q-141 0 -230 141.5t-89 364.5zM174 1430h182l160 -302h-74zM227 479q0 -449 166 -448q170 0 170 448q0 459 -166 459q-170 0 -170 -459z" />
<glyph unicode="&#xf3;" horiz-adv-x="788" d="M76 483q0 225 91 366.5t234 141.5q141 0 227.5 -142t86.5 -376q0 -133 -44 -254t-114 -178q-72 -63 -162 -64q-141 0 -230 141.5t-89 364.5zM227 479q0 -449 166 -448q170 0 170 448q0 459 -166 459q-170 0 -170 -459zM319 1128l162 302h181l-269 -302h-74z" />
<glyph unicode="&#xf4;" horiz-adv-x="788" d="M76 483q0 225 91 366.5t234 141.5q141 0 227.5 -142t86.5 -376q0 -133 -44 -254t-114 -178q-72 -63 -162 -64q-141 0 -230 141.5t-89 364.5zM141 1130l215 300h78l215 -300h-78l-176 177l-176 -177h-78zM227 479q0 -449 166 -448q170 0 170 448q0 459 -166 459 q-170 0 -170 -459z" />
<glyph unicode="&#xf5;" horiz-adv-x="788" d="M76 483q0 225 91 366.5t234 141.5q141 0 227.5 -142t86.5 -376q0 -133 -44 -254t-114 -178q-72 -63 -162 -64q-141 0 -230 141.5t-89 364.5zM152 1198q27 111 60.5 156t92.5 45q55 0 125 -68q53 -51 92 -51q35 0 56.5 24.5t37.5 81.5l46 -12q-14 -100 -55.5 -155.5 t-102.5 -55.5q-51 0 -131 78q-43 41 -80 41q-63 0 -94 -100zM227 479q0 -449 166 -448q170 0 170 448q0 459 -166 459q-170 0 -170 -459z" />
<glyph unicode="&#xf6;" horiz-adv-x="788" d="M76 483q0 225 91 366.5t234 141.5q141 0 227.5 -142t86.5 -376q0 -133 -44 -254t-114 -178q-72 -63 -162 -64q-141 0 -230 141.5t-89 364.5zM156 1272q0 39 27.5 65.5t66.5 26.5q35 0 63.5 -28.5t28.5 -65.5t-28.5 -64.5t-65.5 -27.5q-39 0 -65.5 27.5t-26.5 66.5z M227 479q0 -449 166 -448q170 0 170 448q0 459 -166 459q-170 0 -170 -459zM449 1272q0 37 27.5 64.5t66.5 27.5t65.5 -27.5t26.5 -66.5t-26.5 -65.5t-65.5 -26.5t-66.5 27.5t-27.5 66.5z" />
<glyph unicode="&#xf7;" d="M98 631v119h682v-119h-682zM340 410q0 43 28.5 70.5t71.5 27.5q41 0 70 -28.5t29 -69.5t-30 -71t-71 -30t-69.5 30t-28.5 71zM342 975q0 41 29.5 69.5t72.5 28.5q41 0 69 -28.5t28 -69.5q0 -43 -29 -72t-70 -29t-70.5 30t-29.5 71z" />
<glyph unicode="&#xf8;" horiz-adv-x="788" d="M43 -6l100 158q-68 135 -67 327q0 223 92 365.5t235 142.5q121 0 205 -108l62 94h65l-94 -148q72 -139 72 -333q0 -223 -91.5 -367.5t-230.5 -144.5q-123 0 -215 118l-65 -104h-68zM221 475q1 -94 15 -186l301 483q-37 158 -140 158q-84 0 -130 -120t-46 -335zM250 205 q18 -76 57 -122t86 -46q82 0 128 122t46 341q0 106 -16 188z" />
<glyph unicode="&#xf9;" horiz-adv-x="901" d="M37 913v35q129 14 252 53v-692q0 -125 32.5 -179t110.5 -54q164 0 164 260v457q0 76 -16.5 97t-75.5 21l-19 2v35q127 14 254 53v-819q0 -74 15.5 -92t76.5 -20h21v-37q-135 -16 -227 -53q-12 119 -13 157v23q-72 -176 -225 -176q-242 0 -242 327v482q0 76 -16 97t-76 21 zM205 1430h180l162 -302h-74z" />
<glyph unicode="&#xfa;" horiz-adv-x="901" d="M37 913v35q129 14 252 53v-692q0 -125 32.5 -179t110.5 -54q164 0 164 260v457q0 76 -16.5 97t-75.5 21l-19 2v35q127 14 254 53v-819q0 -74 15.5 -92t76.5 -20h21v-37q-135 -16 -227 -53q-12 119 -13 157v23q-72 -176 -225 -176q-242 0 -242 327v482q0 76 -16 97t-76 21 zM358 1128l162 302h180l-268 -302h-74z" />
<glyph unicode="&#xfb;" horiz-adv-x="901" d="M37 913v35q129 14 252 53v-692q0 -125 32.5 -179t110.5 -54q164 0 164 260v457q0 76 -16.5 97t-75.5 21l-19 2v35q127 14 254 53v-819q0 -74 15.5 -92t76.5 -20h21v-37q-135 -16 -227 -53q-12 119 -13 157v23q-72 -176 -225 -176q-242 0 -242 327v482q0 76 -16 97t-76 21 zM188 1130l218 300h75l217 -300h-77l-179 177l-176 -177h-78z" />
<glyph unicode="&#xfc;" horiz-adv-x="901" d="M37 913v35q129 14 252 53v-692q0 -125 32.5 -179t110.5 -54q164 0 164 260v457q0 76 -16.5 97t-75.5 21l-19 2v35q127 14 254 53v-819q0 -74 15.5 -92t76.5 -20h21v-37q-135 -16 -227 -53q-12 119 -13 157v23q-72 -176 -225 -176q-242 0 -242 327v482q0 76 -16 97t-76 21 zM205 1272q0 39 27.5 65.5t66.5 26.5q35 0 63.5 -28.5t28.5 -65.5t-28.5 -64.5t-65.5 -27.5q-39 0 -65.5 27.5t-26.5 66.5zM498 1272q0 37 27.5 64.5t66.5 27.5t65.5 -27.5t26.5 -66.5t-26.5 -65.5t-65.5 -26.5t-66.5 27.5t-27.5 66.5z" />
<glyph unicode="&#xfd;" horiz-adv-x="837" d="M27 932v41q92 -10 174 -10q80 0 172 10v-41q-86 -8 -86 -41q0 -18 12 -57l162 -580l174 571q12 39 12 64q0 41 -92 43v41q66 -8 123 -8q59 0 143 8v-41q-55 -8 -81.5 -29.5t-41.5 -71.5l-311 -1001q-45 -150 -121 -199q-66 -39 -116 -32q-12 2 -23 2v102h16q74 0 120 41 t77 135l51 154l-239 803q-18 57 -41 74.5t-84 21.5zM362 1128l160 302h183l-269 -302h-74z" />
<glyph unicode="&#xfe;" horiz-adv-x="870" d="M47 -369q72 4 91.5 24.5t19.5 86.5v1436q0 80 -18.5 99t-90.5 21v37q133 15 252 54v-543q68 139 191 139q133 0 219 -142.5t86 -359.5q0 -221 -84 -361t-217 -140q-66 0 -110 32.5t-85 110.5v-383q0 -66 19.5 -86.5t91.5 -24.5v-41q-121 12 -187 13q-68 0 -178 -13v41z M299 496q0 -457 178 -457q168 0 168 442q0 447 -170 447q-176 0 -176 -432z" />
<glyph unicode="&#xff;" horiz-adv-x="837" d="M27 932v41q92 -10 174 -10q80 0 172 10v-41q-86 -8 -86 -41q0 -18 12 -57l162 -580l174 571q12 39 12 64q0 41 -92 43v41q66 -8 123 -8q59 0 143 8v-41q-55 -8 -81.5 -29.5t-41.5 -71.5l-311 -1001q-45 -150 -121 -199q-66 -39 -116 -32q-12 2 -23 2v102h16q74 0 120 41 t77 135l51 154l-239 803q-18 57 -41 74.5t-84 21.5zM207 1272q0 37 28.5 64.5t67.5 27.5q37 0 63.5 -27.5t26.5 -66.5t-26.5 -65.5t-65.5 -26.5t-66.5 27.5t-27.5 66.5zM502 1272q0 37 27.5 64.5t66.5 27.5q37 0 64.5 -27.5t27.5 -66.5t-26.5 -65.5t-65.5 -26.5t-66.5 27.5 t-27.5 66.5z" />
<glyph unicode="&#x152;" horiz-adv-x="1519" d="M86 682q0 317 118 513t310.5 196t296.5 -215v190h578l28 -307h-39q-31 147 -68.5 195.5t-121.5 48.5h-240v-562h238q53 0 71.5 32t22.5 136h41v-401h-41q-4 102 -24.5 136t-77.5 34h-230v-494q0 -72 23.5 -96.5t89.5 -24.5h117q96 0 140 54.5t79 212.5h39l-39 -330h-582 v195q-70 -121 -135.5 -170.5t-159.5 -49.5q-164 0 -278 142q-70 84 -113 240.5t-43 324.5zM246 686q0 -309 75.5 -480t213.5 -171q129 0 203.5 169t74.5 460q0 324 -73 495.5t-210 171.5q-135 0 -209.5 -170t-74.5 -475z" />
<glyph unicode="&#x153;" horiz-adv-x="1257" d="M76 481q0 225 91 365.5t236.5 140.5t231.5 -160q96 158 246 158q143 0 220 -129t81 -373h-473q4 -236 51 -335t151 -99q86 0 139.5 68.5t67.5 195.5h66q-16 -160 -92 -245.5t-199 -85.5q-164 0 -260 161q-96 -164 -240 -163q-139 0 -228 140t-89 361zM227 477 q0 -444 166 -444q82 0 126 111.5t44 316.5q0 473 -164 473q-172 0 -172 -457zM711 559h327q-12 377 -159 377q-143 0 -168 -377z" />
<glyph unicode="&#x178;" horiz-adv-x="989" d="M33 1323v49q121 -14 205 -14q88 0 204 14v-49q-63 -6 -87.5 -17.5t-24.5 -35.5q0 -23 14 -66l207 -524l203 526q16 45 16 64q0 25 -24.5 36t-86.5 17v49q84 -10 152 -10q66 0 154 10v-49q-70 -10 -96.5 -30.5t-53.5 -80.5l-240 -616v-416q0 -82 21.5 -105.5t108.5 -31.5 v-49q-145 16 -207 16q-63 0 -205 -16v49q86 8 107.5 31.5t21.5 105.5v416l-240 614q-27 63 -54.5 84t-94.5 29zM293 1626q0 41 29.5 69.5t72.5 28.5q41 0 69 -27.5t28 -70.5q0 -41 -29 -70.5t-70 -29.5t-70.5 29.5t-29.5 70.5zM588 1626q0 41 28.5 69.5t73.5 28.5 q41 0 68.5 -27.5t27.5 -70.5q0 -41 -28.5 -70.5t-69.5 -29.5t-70.5 29.5t-29.5 70.5z" />
<glyph unicode="&#x2c6;" horiz-adv-x="839" d="M166 1130l215 300h80l215 -300h-78l-178 177l-176 -177h-78z" />
<glyph unicode="&#x2dc;" horiz-adv-x="839" d="M166 1198q25 111 59.5 156t93.5 45q35 0 58.5 -14.5t87.5 -71.5q35 -33 69.5 -33t56 23.5t40.5 82.5l43 -12q-12 -100 -53 -155.5t-103 -55.5q-53 0 -133 78q-41 41 -80 41q-61 0 -94 -100z" />
<glyph unicode="&#x2000;" horiz-adv-x="894" />
<glyph unicode="&#x2001;" horiz-adv-x="1788" />
<glyph unicode="&#x2002;" horiz-adv-x="894" />
<glyph unicode="&#x2003;" horiz-adv-x="1788" />
<glyph unicode="&#x2004;" horiz-adv-x="596" />
<glyph unicode="&#x2005;" horiz-adv-x="447" />
<glyph unicode="&#x2006;" horiz-adv-x="298" />
<glyph unicode="&#x2007;" horiz-adv-x="298" />
<glyph unicode="&#x2008;" horiz-adv-x="223" />
<glyph unicode="&#x2009;" horiz-adv-x="357" />
<glyph unicode="&#x200a;" horiz-adv-x="99" />
<glyph unicode="&#x2010;" horiz-adv-x="440" d="M10 502v92h420v-92h-420z" />
<glyph unicode="&#x2011;" horiz-adv-x="440" d="M10 502v92h420v-92h-420z" />
<glyph unicode="&#x2012;" horiz-adv-x="440" d="M10 502v92h420v-92h-420z" />
<glyph unicode="&#x2013;" d="M147 504v88h582v-88h-582z" />
<glyph unicode="&#x2014;" horiz-adv-x="980" d="M10 504v88h961v-88h-961z" />
<glyph unicode="&#x2018;" horiz-adv-x="409" d="M100 1036q0 158 129 338h78q-45 -49 -82 -128t-41 -136h6q4 0 11 2q2 2 4 2q33 2 55.5 -26.5t22.5 -71.5q0 -47 -26 -76t-64 -29q-43 0 -68 34t-25 91z" />
<glyph unicode="&#x2019;" horiz-adv-x="409" d="M102 924q49 59 85 135t38 129h-6q-6 -2 -14 -2q-35 0 -56.5 26.5t-21.5 69.5q0 47 25.5 77t64.5 30q43 0 67.5 -34t24.5 -91q0 -147 -129 -340h-78z" />
<glyph unicode="&#x201a;" horiz-adv-x="409" d="M102 -274q49 59 85 135t38 131h-6q-12 -4 -14 -4q-33 0 -55.5 27.5t-22.5 68.5q0 47 24.5 76.5t65.5 29.5q43 0 67.5 -33.5t24.5 -90.5q0 -147 -129 -340h-78z" />
<glyph unicode="&#x201c;" horiz-adv-x="659" d="M102 1036q0 158 129 338h78q-45 -49 -82 -128t-41 -136h7q4 0 10 2q2 2 4 2q33 2 55.5 -26.5t22.5 -71.5q0 -47 -26 -76t-64 -29q-43 0 -68 34t-25 91zM350 1036q0 160 129 338h80q-45 -49 -82 -129t-41 -135h6q12 4 15 4q31 2 54.5 -27.5t23.5 -70.5q0 -45 -26 -75 t-65 -30q-43 0 -68.5 34t-25.5 91z" />
<glyph unicode="&#x201d;" horiz-adv-x="659" d="M102 924q49 59 85 135t38 129h-6q-6 -2 -14 -2q-35 0 -56.5 26.5t-21.5 69.5q0 47 25.5 77t64.5 30q43 0 67.5 -34t24.5 -91q0 -147 -129 -340h-78zM350 924q49 57 84 134t39 130h-6q-6 -2 -12 -2q-35 0 -56.5 26.5t-21.5 69.5q0 47 24.5 77t63.5 30q43 0 68.5 -34 t25.5 -91q0 -150 -129 -340h-80z" />
<glyph unicode="&#x201e;" horiz-adv-x="659" d="M102 -274q49 59 85 135t38 131h-6q-12 -4 -14 -4q-33 0 -55.5 27.5t-22.5 68.5q0 47 24.5 76.5t65.5 29.5q43 0 67.5 -33.5t24.5 -90.5q0 -147 -129 -340h-78zM350 -274q49 59 85 135t38 131h-6q-12 -4 -14 -4q-35 0 -55.5 26.5t-20.5 69.5q0 47 24.5 76.5t63.5 29.5 q43 0 68.5 -33.5t25.5 -90.5q0 -150 -129 -340h-80z" />
<glyph unicode="&#x2022;" horiz-adv-x="1132" d="M301 692q0 111 77.5 186.5t192.5 75.5q106 0 183 -77.5t77 -186.5q0 -111 -76.5 -188.5t-187 -77.5t-188.5 78t-78 190z" />
<glyph unicode="&#x2026;" horiz-adv-x="1157" d="M98 88q0 41 29 68.5t72 27.5t70.5 -27.5t27.5 -70.5q0 -41 -28.5 -70.5t-69.5 -29.5t-71 30.5t-30 71.5zM483 88q0 41 29 68.5t72 27.5t70.5 -27.5t27.5 -70.5q0 -41 -28.5 -70.5t-69.5 -29.5t-71 30.5t-30 71.5zM856 88q0 41 28.5 68.5t73.5 27.5q41 0 69 -27.5 t28 -70.5q0 -41 -29 -70.5t-70 -29.5t-70.5 30.5t-29.5 71.5z" />
<glyph unicode="&#x202f;" horiz-adv-x="357" />
<glyph unicode="&#x2039;" horiz-adv-x="450" d="M98 489l199 478h53l-135 -478l135 -489h-53z" />
<glyph unicode="&#x203a;" horiz-adv-x="456" d="M106 0l136 489l-136 478h54l198 -478l-198 -489h-54z" />
<glyph unicode="&#x205f;" horiz-adv-x="447" />
<glyph unicode="&#x20ac;" d="M2 516l45 90h123v51q0 53 2 82h-137l43 90h102q33 254 132.5 389.5t254.5 135.5q135 0 209 -115l41 113h33v-400h-41q-51 326 -221 326q-94 0 -156 -92q-70 -104 -94 -357h412l-33 -90h-385l-2 -20l2 -41v-51v-21h338l-33 -90h-301q37 -451 262 -450q57 0 94 21.5 t96 88.5q35 37 62 90v-145q-106 -145 -279 -146q-166 0 -268 140.5t-127 400.5h-174z" />
<glyph unicode="&#x2122;" horiz-adv-x="1445" d="M37 1167l31 199h452l31 -199h-35q-16 84 -41.5 116t-77.5 32h-55v-656q0 -45 15.5 -58t68.5 -15v-43q-59 8 -119 8q-78 0 -147 -8v43q53 2 68.5 15t15.5 58v656h-49q-53 0 -80 -33t-41 -115h-37zM616 543v43q53 2 66.5 14t17.5 59l21 594q0 45 -14.5 58.5t-69.5 15.5v43 q41 -4 88 -4q51 0 100 6l187 -600l188 600q55 -6 100.5 -6t85.5 4v-43q-57 -4 -70 -16.5t-13 -57.5l10 -594q2 -47 15 -59t69 -14v-43q-84 10 -133 10q-47 0 -131 -10v43q55 4 69.5 16t14.5 57l-11 590l-166 -536q-23 -70 -43 -142h-22q-35 113 -45 146l-164 532l-21 -590 q0 -45 13.5 -57t70.5 -16v-43q-78 6 -104 6q-37 0 -109 -6z" />
<glyph unicode="&#xe000;" horiz-adv-x="972" d="M0 0v973h973v-973h-973z" />
<glyph unicode="&#xfb01;" horiz-adv-x="944" d="M55 -6v41q70 4 90.5 24.5t20.5 85.5v746h-107v63q76 2 95.5 23.5t23.5 105.5q0 121 29 185q59 127 196 127q74 0 119 -42t45 -112q0 -76 -63 -76q-66 0 -66 60q0 12 6 37q2 8 2 24q0 57 -45 57q-41 0 -67 -43q-25 -43 -25 -172v-161h183v-76h-183v-746q0 -66 19.5 -86 t91.5 -24v-41q-102 12 -182 12t-183 -12zM526 -6v41q72 4 91.5 24.5t19.5 85.5v648q0 80 -17.5 99t-91.5 21v35q129 14 252 53v-856q0 -66 19.5 -86t91.5 -24v-41q-102 12 -182 12t-183 -12zM612 1255q0 43 29 71t72 28q41 0 69.5 -29t28.5 -70t-28.5 -70.5t-69.5 -29.5 t-71 29.5t-30 70.5z" />
<glyph unicode="&#xfb02;" horiz-adv-x="935" d="M55 -6v41q70 4 90.5 24.5t20.5 85.5v746h-107v63q76 2 95.5 23.5t23.5 105.5q0 311 228 312q84 0 131 -60q119 12 241 54v-1244q0 -66 20.5 -86t90.5 -24v-41q-102 12 -182 12t-183 -12v41q70 4 90.5 24.5t20.5 85.5v1029q0 78 -12.5 99t-63.5 25q10 -41 10 -55 q0 -78 -67 -78q-63 0 -64 60q0 18 6 39q4 20 5 24q2 23 -11.5 38t-36.5 15q-49 0 -70.5 -49t-21.5 -164v-161h183v-76h-183v-746q0 -66 19.5 -86t91.5 -24v-41q-102 12 -182 12t-183 -12z" />
</font>
</defs>
</svg>
